# This file uses centimeters as units for non-parametric coordinates.

mtllib pillar_d.mtl
g default
v -88.981422 11.212661 165.291962
v -103.350128 12.222400 182.050064
v -98.317963 20.821749 164.603012
v 114.147949 12.222400 180.280746
v 101.690887 12.222400 198.454742
v 102.240059 -0.033117 179.402100
v -124.034210 1224.790527 162.705429
v -112.675461 1224.790527 182.636719
v -112.126312 1237.046021 163.584091
v 102.240059 1237.046021 179.402100
v 101.690887 1224.790527 198.454742
v 114.147949 1224.790527 180.280746
v -114.147949 1224.790527 -180.280746
v -102.240059 1237.046021 -179.402100
v -101.690887 1224.790527 -198.454742
v 115.076263 1227.668335 -176.741745
v 114.785011 1234.168091 -166.637115
v 121.100388 1227.668335 -166.171127
v -114.147949 12.222400 -180.280746
v -101.690887 12.222400 -198.454742
v -102.240059 -0.033117 -179.402100
v 112.126312 -0.033117 -163.584091
v 112.675461 12.222400 -182.636719
v 124.034210 12.222400 -162.705429
v -108.340958 1048.697144 162.881958
v 104.906296 1048.909424 180.332626
v 119.601578 1048.697144 158.893356
v 128.368713 1046.983765 -182.460129
v 117.009979 1046.729980 -202.391464
v -101.494652 1048.909424 -212.172028
v -105.675171 1049.025391 -206.072952
v -119.699707 1048.697144 142.950668
v -142.692413 641.611267 208.512695
v 82.030777 641.611267 206.531250
v 94.487839 641.611267 188.357269
v 102.430832 641.611267 -158.038788
v 94.958672 641.611267 -171.150299
v -121.350975 641.611267 -190.378220
v -133.808029 641.611267 -172.204208
v -143.903885 641.611267 189.330139
v -112.675468 104.124512 182.636703
v 78.664574 92.878746 192.632690
v 88.431694 92.878731 178.383163
v 131.298798 104.124550 -149.958160
v 105.410881 104.124504 -195.383957
v -101.690887 104.124535 -198.454742
v -114.147942 104.124512 -180.280746
v -124.034210 104.124535 162.705429
v 104.514168 907.915161 223.712997
v -109.852188 907.915161 207.895004
v -121.210938 908.128418 187.963669
v -111.324669 907.915161 -155.022491
v -98.867592 907.915161 -173.196487
v 115.498741 906.708191 -157.378448
v 126.857498 906.359375 -137.447159
v 116.971237 907.915161 205.539017
v -124.034210 1170.107788 162.705429
v -120.041969 1169.902344 -171.681793
v -95.796852 1169.902344 -207.053711
v 115.331482 1169.244751 -177.976196
v 121.378189 1169.244751 -167.365952
v 114.147942 1170.107788 180.280746
v 101.690887 1170.107788 198.454742
v -112.675468 1170.107788 182.636703
v 96.589569 298.288025 172.359833
v -107.246918 305.324127 166.847443
v -114.807182 305.324127 147.196396
v -104.842468 305.324127 -202.732986
v -92.385399 305.324127 -220.906982
v 118.163177 305.324127 -211.788071
v 137.157440 305.324127 -178.458588
v 107.363640 298.288025 156.641251
vt 0.777806 0.954743
vt 0.764570 0.955445
vt 0.748227 0.767689
vt 0.082505 0.019052
vt 0.080255 0.032447
vt 0.961746 0.961638
vt 0.944852 0.961005
vt 0.968747 0.774876
vt 0.243902 0.870659
vt 0.755515 0.768161
vt 0.753986 0.951244
vt 0.057517 0.966221
vt 0.966159 0.755549
vt 0.239111 0.970019
vt 0.062496 0.006331
vt 0.037430 0.955003
vt 0.770389 0.948290
vt 0.951413 0.965624
vt 0.257669 0.015228
vt 0.224907 0.963860
vt 0.052920 0.949839
vt 0.209915 0.957456
vt 0.951853 0.774243
vt 0.217841 0.017924
vt 0.772495 0.767318
vt 0.965741 0.772453
vt 0.767014 0.964583
vt 0.248300 0.015088
vt 0.049868 0.966924
vt 0.028957 0.865509
vt 0.038802 0.101987
vt 0.257073 0.882519
vt 0.069704 0.027469
vt 0.759590 0.756424
vt 0.217840 0.000936
vt 0.059458 0.827270
vt 0.231039 0.834959
vt 0.250954 0.836551
vt 0.253452 0.155941
vt 0.026690 0.215140
vt 0.236408 0.154782
vt 0.074125 0.144945
vt 0.068555 0.144989
vt 0.265873 0.212849
vt 0.041825 0.827733
vt 0.051147 0.511944
vt 0.224057 0.511603
vt 0.241027 0.510726
vt 0.231385 0.468161
vt 0.038434 0.470104
vt 0.219762 0.468409
vt 0.051895 0.466380
vt 0.035003 0.465199
vt 0.246421 0.476238
vt 0.036489 0.511145
vt 0.066122 0.095728
vt 0.215929 0.084576
vt 0.245572 0.817625
vt 0.250848 0.893002
vt 0.038192 0.807929
vt 0.210881 0.885417
vt 0.049319 0.881164
vt 0.032336 0.882653
vt 0.255760 0.823323
vt 0.048783 0.093487
vt 0.230954 0.719839
vt 0.068525 0.715626
vt 0.012821 0.306450
vt 0.052414 0.260579
vt 0.233879 0.304155
vt 0.069341 0.260391
vt 0.239094 0.264548
vt 0.256592 0.266350
vt 0.053518 0.303690
vt 0.247615 0.720963
vt 0.041775 0.922775
vt 0.049101 0.047872
vt 0.242489 0.134779
vt 0.081922 0.051013
vt 0.246663 0.060293
vt 0.256086 0.060249
vt 0.037465 0.138579
vt 0.239486 0.927692
vt 0.222739 0.927637
vt 0.059146 0.923995
vt 0.230290 0.243628
vt 0.070031 0.251289
vt 0.043448 0.695876
vt 0.045459 0.724702
vt 0.268978 0.693423
vt 0.062383 0.725037
vt 0.223875 0.731533
vt 0.253371 0.732223
vt 0.021447 0.681650
vt 0.244972 0.242936
vt 0.979226 0.762289
vt 0.232191 0.688344
vt 0.255520 0.473411
vt 0.053781 0.250360
vt 0.034703 0.825731
vt 0.255330 0.141522
vt 0.982605 0.775135
vt 0.027052 0.137479
vt 0.040839 0.215571
vt 0.268514 0.306107
vt 0.240645 0.217438
vt 0.051062 0.716801
vt 0.013416 0.478784
vt 0.034570 0.881914
vt 0.229324 0.083439
vt 0.039751 0.965366
vt 0.232414 0.011424
vt 0.212204 0.974391
vt 0.765108 0.766794
vt 0.951948 0.974618
vt 0.079492 0.008180
vt 0.255878 0.107261
vt 0.959867 0.968101
vt 0.247637 0.099154
vt 0.026589 0.102251
vt 0.773009 0.750413
vt 0.222103 0.969839
vn -0.718097 -0.694125 0.050268
vn -0.718097 -0.694125 0.050268
vn -0.718097 -0.694125 0.050268
vn -0.718097 -0.694125 0.050268
vn -0.052011 -0.943326 0.327767
vn -0.052011 -0.943326 0.327767
vn -0.052011 -0.943326 0.327766
vn -0.052011 -0.943326 0.327767
vn -0.868195 0.031252 0.495238
vn -0.867766 0.043855 0.495034
vn -0.866385 -0.074756 0.493749
vn -0.866138 -0.078455 0.493608
vn 0.716312 -0.697475 0.020647
vn 0.716312 -0.697475 0.020647
vn 0.716312 -0.697475 0.020647
vn 0.716312 -0.697475 0.020647
vn 0.823189 0.066251 0.563889
vn 0.823527 0.059424 0.564157
vn 0.823866 -0.045551 0.564951
vn 0.823964 -0.043056 0.565005
vn -0.716311 0.697476 -0.020647
vn -0.716311 0.697475 -0.020647
vn -0.716311 0.697476 -0.020647
vn -0.716311 0.697476 -0.020647
vn -0.039828 0.840886 0.539745
vn -0.039828 0.840886 0.539745
vn -0.039828 0.840886 0.539745
vn -0.039828 0.840886 0.539745
vn 0.716336 0.697464 0.020169
vn 0.716336 0.697464 0.020169
vn 0.716336 0.697464 0.020169
vn 0.716336 0.697464 0.020169
vn -0.824178 0.038404 -0.565027
vn -0.824073 0.041466 -0.564964
vn -0.824657 -0.025713 -0.565048
vn -0.824526 -0.031753 -0.564933
vn 0.042889 0.840822 -0.539609
vn 0.042889 0.840822 -0.539609
vn 0.042889 0.840822 -0.539609
vn 0.042889 0.840822 -0.539609
vn 0.865116 0.088339 -0.493731
vn 0.865356 0.085335 -0.493839
vn 0.866857 -0.062592 -0.494613
vn 0.867351 -0.052567 -0.494913
vn 0.039828 -0.840885 -0.539747
vn 0.039828 -0.840885 -0.539747
vn 0.039828 -0.840885 -0.539747
vn 0.039828 -0.840885 -0.539747
vn -0.077281 0.092227 0.992735
vn -0.077247 0.097236 0.992259
vn -0.075832 -0.108555 0.991194
vn -0.075819 -0.107735 0.991284
vn 0.006933 0.999968 -0.003951
vn 0.006933 0.999968 -0.003951
vn 0.006933 0.999968 -0.003951
vn 0.006933 0.999968 -0.003951
vn 0.098816 0.110005 -0.989007
vn 0.098705 0.110114 -0.989006
vn 0.071976 -0.106092 -0.991748
vn 0.072140 -0.104276 -0.991929
vn -0.028928 -0.999446 0.016486
vn -0.028928 -0.999446 0.016486
vn -0.028928 -0.999446 0.016486
vn -0.028928 -0.999446 0.016486
vn 0.999515 0.018043 0.025376
vn 0.999468 0.020761 0.025159
vn 0.999174 0.034019 0.022244
vn 0.999246 0.031908 0.022125
vn -0.999178 -0.026531 -0.030657
vn -0.999242 -0.023616 -0.030939
vn -0.999249 -0.030108 -0.024400
vn -0.999090 -0.034825 -0.024621
vn -0.609612 -0.627087 -0.484908
vn -0.609612 -0.627087 -0.484908
vn -0.609612 -0.627087 -0.484907
vn 0.630967 -0.644078 0.432487
vn 0.630967 -0.644077 0.432486
vn 0.630967 -0.644077 0.432487
vn -0.675565 0.628801 0.384995
vn -0.675565 0.628801 0.384995
vn -0.675565 0.628801 0.384995
vn 0.630968 0.644079 0.432483
vn 0.630968 0.644079 0.432483
vn 0.630968 0.644079 0.432483
vn -0.630968 0.644079 -0.432483
vn -0.630968 0.644079 -0.432483
vn -0.630968 0.644079 -0.432483
vn 0.675564 0.628800 -0.384998
vn 0.675564 0.628800 -0.384998
vn 0.675565 0.628800 -0.384998
vn -0.630967 -0.644078 -0.432487
vn -0.630967 -0.644077 -0.432486
vn -0.630967 -0.644077 -0.432487
vn 0.675564 -0.628799 -0.385000
vn 0.675564 -0.628799 -0.385000
vn 0.675564 -0.628799 -0.385000
vn -0.019511 -0.074697 0.997015
vn -0.019706 -0.073936 0.997068
vn -0.047531 0.091538 0.994667
vn -0.046401 0.083005 0.995468
vn 0.823289 -0.061239 0.564310
vn 0.823430 -0.058383 0.564407
vn 0.824995 0.005808 0.565110
vn 0.824884 -0.014998 0.565103
vn 0.999092 -0.006912 0.042041
vn 0.999057 0.000309 0.043428
vn 0.997939 -0.058460 0.026468
vn 0.997584 -0.064275 0.026375
vn 0.864771 -0.094205 -0.493250
vn 0.865360 -0.086736 -0.493588
vn 0.867230 0.059049 -0.494394
vn 0.866902 0.065244 -0.494190
vn 0.072717 -0.067629 -0.995057
vn 0.072346 -0.072535 -0.994739
vn 0.072714 0.083914 -0.993816
vn 0.072628 0.084244 -0.993795
vn -0.824110 0.044354 -0.564691
vn -0.824650 0.026774 -0.565009
vn -0.824376 0.033438 -0.565054
vn -0.824225 0.038510 -0.564951
vn -0.999515 -0.013047 -0.028263
vn -0.999584 -0.005714 -0.028273
vn -0.997473 0.064348 -0.030120
vn -0.997832 0.058232 -0.030656
vn -0.965891 -0.025453 0.257695
vn -0.965186 -0.017075 0.261006
vn -0.921389 0.122636 0.368785
vn -0.915407 0.127310 0.381867
vn -0.043301 0.070768 0.996553
vn -0.045334 0.066043 0.996786
vn -0.019055 -0.039179 0.999051
vn -0.018460 -0.043987 0.998862
vn 0.822684 0.072190 0.563896
vn 0.822732 0.071389 0.563929
vn 0.824679 -0.019554 0.565263
vn 0.824679 -0.019504 0.565264
vn 0.995122 0.000977 0.098651
vn 0.995021 -0.004083 0.099587
vn 0.996915 0.026106 0.074026
vn 0.996886 0.023125 0.075395
vn 0.868771 0.010295 -0.495107
vn 0.868790 0.007882 -0.495118
vn 0.866704 -0.069697 -0.493930
vn 0.866597 -0.071436 -0.493869
vn 0.052773 0.034880 -0.997997
vn 0.052541 0.033563 -0.998055
vn 0.034003 -0.088045 -0.995536
vn 0.034063 -0.087930 -0.995544
vn -0.824643 -0.021666 -0.565238
vn -0.824643 -0.021675 -0.565238
vn -0.824711 -0.017501 -0.565284
vn -0.824722 -0.016695 -0.565292
vn -0.999785 -0.011269 -0.017398
vn -0.999732 -0.016401 -0.016341
vn -0.998896 -0.037468 -0.028328
vn -0.998913 -0.037013 -0.028330
vn -0.933325 0.001719 0.359028
vn -0.937793 -0.008782 0.347085
vn -0.951119 -0.047171 0.305202
vn -0.950713 -0.045910 0.306654
vn -0.065941 0.017906 0.997663
vn -0.065941 0.017906 0.997663
vn 0.795049 0.266313 0.544954
vn 0.795049 0.266313 0.544954
vn 0.991692 0.101035 0.079620
vn 0.991692 0.101035 0.079620
vn 0.868817 0.000000 -0.495134
vn 0.868817 0.000000 -0.495134
vn 0.044670 -0.067360 -0.996728
vn 0.044670 -0.067360 -0.996728
vn -0.824837 0.000000 -0.565370
vn -0.824837 0.000000 -0.565370
vn -0.989362 -0.145104 0.010363
vn -0.989362 -0.145104 0.010363
vn -0.973643 -0.193833 0.120203
vn -0.973643 -0.193833 0.120203
vn -0.998432 0.052101 -0.020472
vn -0.998432 0.052101 -0.020472
vn -0.824837 0.000000 -0.565370
vn -0.824837 0.000000 -0.565370
vn 0.116897 0.092159 -0.988859
vn 0.116897 0.092159 -0.988859
vn 0.868729 0.014256 -0.495083
vn 0.868729 0.014256 -0.495083
vn 0.999789 0.002240 0.020435
vn 0.999789 0.002240 0.020435
vn 0.824837 0.000000 0.565371
vn 0.824837 0.000000 0.565371
vn -0.073590 -0.000000 0.997289
vn -0.073590 -0.000000 0.997289
vn -0.868816 0.000000 0.495135
vn -0.868816 0.000000 0.495135
s off
g Pillar_D
usemtl initialShadingGroup
f 1/1/1 3/2/2 19/3/3 21/114/4
f 2/5/5 1/4/6 6/35/7 5/24/8
s 1
f 32/45/9 25/36/10 64/85/11 57/76/12
s off
f 4/6/13 6/7/14 22/23/15 24/8/16
s 2
f 26/37/17 27/38/18 62/83/19 63/84/20
s off
f 7/10/21 9/25/22 14/17/23 13/11/24
f 9/25/25 8/121/26 11/13/27 10/26/28
f 10/26/29 12/102/30 18/118/31 17/18/32
s 3
f 58/77/33 59/79/34 30/42/35 31/43/36
s off
f 15/27/37 14/17/38 17/18/39 16/115/40
s 4
f 60/80/41 61/81/42 28/39/43 29/41/44
s off
f 21/29/45 20/21/46 23/22/47 22/113/48
s 5
f 25/36/49 26/37/50 63/84/51 64/85/52
s off
f 9/25/53 10/26/54 17/18/55 14/17/56
s 6
f 59/79/57 60/80/58 29/41/59 30/42/60
s off
f 21/114/61 22/23/62 6/7/63 1/1/64
s 7
f 27/106/65 28/40/66 61/82/67 62/101/68
s 8
f 31/44/69 32/104/70 57/103/71 58/78/72
s off
f 1/4/73 2/5/74 3/33/75
f 4/112/76 5/24/77 6/35/78
f 7/34/79 8/121/80 9/25/81
f 10/26/82 11/13/83 12/96/84
f 13/11/85 14/17/86 15/27/87
f 16/115/88 17/18/89 18/118/90
f 19/16/91 20/21/92 21/29/93
f 22/113/94 23/22/95 24/20/96
s 5
f 33/46/97 34/47/98 49/66/99 50/67/100
s 2
f 34/47/101 35/48/102 56/75/103 49/66/104
s 7
f 35/98/105 36/50/106 55/74/107 56/105/108
s 4
f 54/72/109 55/73/110 36/49/111 37/51/112
s 6
f 53/71/113 54/72/114 37/51/115 38/52/116
s 3
f 52/69/117 53/71/118 38/52/119 39/53/120
s 8
f 39/54/121 40/108/122 51/68/123 52/70/124
s 1
f 40/55/125 33/46/126 50/67/127 51/107/128
s 5
f 41/56/129 42/57/130 65/86/131 66/87/132
s 2
f 42/57/133 43/110/134 72/95/135 65/86/136
s 7
f 43/58/137 44/60/138 71/94/139 72/97/140
s 4
f 70/92/141 71/93/142 44/59/143 45/61/144
s 6
f 69/91/145 70/92/146 45/61/147 46/62/148
s 3
f 68/89/149 69/91/150 46/62/151 47/63/152
s 8
f 47/64/153 48/100/154 67/88/155 68/90/156
s 1
f 48/65/157 41/56/158 66/87/159 67/99/160
s 5
f 2/5/161 5/24/162 42/57/130 41/56/129
s 2
f 5/24/163 4/112/164 43/110/134 42/57/133
s 7
f 4/9/165 24/30/166 44/60/138 43/58/137
s 4
f 45/61/144 44/59/143 24/20/167 23/22/168
s 6
f 46/62/148 45/61/147 23/22/169 20/21/170
s 3
f 47/63/152 46/62/151 20/21/171 19/16/172
s 8
f 19/32/173 3/109/174 48/100/154 47/64/153
s 1
f 3/33/175 2/5/176 41/56/158 48/65/157
s 5
f 50/67/100 49/66/99 26/37/50 25/36/49
s 1
f 51/107/128 50/67/127 25/36/10 32/45/9
s 8
f 52/70/124 51/68/123 32/104/70 31/44/69
s 3
f 31/43/36 30/42/35 53/71/118 52/69/117
s 6
f 30/42/60 29/41/59 54/72/114 53/71/113
s 4
f 29/41/44 28/39/43 55/73/110 54/72/109
s 7
f 56/105/108 55/74/107 28/40/66 27/106/65
s 2
f 49/66/104 56/75/103 27/38/18 26/37/17
s 8
f 58/78/72 57/103/71 7/120/177 13/119/178
s 3
f 13/15/179 15/116/180 59/79/34 58/77/33
s 6
f 15/116/181 16/28/182 60/80/58 59/79/57
s 4
f 16/28/183 18/19/184 61/81/42 60/80/41
s 7
f 62/101/68 61/82/67 18/31/185 12/117/186
s 2
f 63/84/20 62/83/19 12/14/187 11/122/188
s 5
f 64/85/52 63/84/51 11/122/189 8/12/190
s 1
f 57/76/12 64/85/11 8/12/191 7/111/192
s 5
f 66/87/132 65/86/131 34/47/98 33/46/97
s 1
f 67/99/160 66/87/159 33/46/126 40/55/125
s 8
f 68/90/156 67/88/155 40/108/122 39/54/121
s 3
f 39/53/120 38/52/119 69/91/150 68/89/149
s 6
f 38/52/116 37/51/115 70/92/146 69/91/145
s 4
f 37/51/112 36/49/111 71/93/142 70/92/141
s 7
f 72/97/140 71/94/139 36/50/106 35/98/105
s 2
f 65/86/136 72/95/135 35/48/102 34/47/101
