# This file uses centimeters as units for non-parametric coordinates.

mtllib pillar_C.mtl
g default
v -418.102522 66.259074 485.545084
v -485.635511 72.191286 534.772054
v -461.984297 122.712467 483.521285
v 536.605489 72.191286 529.574702
v 478.057299 72.191286 582.960752
v 480.638369 0.190131 526.993703
v -537.769036 7220.723254 575.665877
v -521.003018 7220.723254 594.053078
v -520.192408 7243.336267 576.476450
v 506.524801 7268.030200 604.631879
v 522.864178 7191.656348 643.346637
v 543.571294 7191.656348 624.465167
v -510.498838 7190.435449 -357.873954
v -454.531789 7268.030200 -355.292920
v -451.950647 7190.435449 -411.260112
v 566.854854 7198.561768 -441.540638
v 565.486005 7251.122363 -317.795797
v 595.168309 7203.724194 -410.489413
v -536.385234 72.191286 -529.574702
v -477.837043 72.191286 -582.960752
v -480.418113 0.190131 -526.993703
v 527.103831 0.190131 -480.528241
v 529.684829 72.191286 -536.495361
v 583.070880 72.191286 -477.947171
v -538.042382 5166.491064 586.690789
v 404.476402 5154.554602 636.410092
v 537.251115 5155.084729 515.342564
v 546.603173 5159.037158 -458.338426
v 493.217051 5153.740479 -516.886796
v -533.754644 5148.173572 -545.617138
v -553.403048 5154.554602 -370.221351
v -647.208158 5160.240845 466.969054
v -640.849289 2600.554120 698.839713
v 416.339606 2600.554120 702.812724
v 474.887796 2600.554120 649.426674
v 670.114434 2600.554120 -639.393706
v 435.848414 2600.554120 -759.245499
v -483.038125 2600.554120 -629.049632
v -654.619394 2600.554120 -472.595628
v -644.563691 2600.554120 662.078220
v -529.464574 612.116193 536.495361
v 369.833588 618.317072 565.858528
v 415.739090 618.316713 524.000516
v 565.073600 712.592821 -497.684575
v 547.682073 712.592821 -516.757850
v -477.837043 612.116336 -582.960752
v -536.385234 612.116193 -529.574702
v -582.850624 612.116336 477.947171
v 505.872863 4344.652289 655.996605
v -455.099280 4344.652289 527.079476
v -486.850062 4344.652289 492.258376
v -451.202216 4344.652289 -527.127132
v -392.654061 4344.652289 -580.513290
v 591.869001 4344.652289 -540.990683
v 691.252601 4344.652289 -431.997421
v 679.155780 4344.652289 497.993278
v -556.964300 6242.233398 555.585418
v -538.200804 6220.579663 -426.677074
v -424.248753 6207.998901 -530.582101
v 527.844696 6218.492432 -489.265188
v 636.683733 6233.569495 -369.900922
v 562.491777 6226.421960 607.212949
v 503.943623 6226.421960 660.598856
v -503.578214 6242.233398 614.133501
v 412.914937 1111.489543 567.819467
v -514.178637 1170.475203 519.249274
v -549.711881 1170.475203 380.973024
v -502.877725 1170.475203 -485.842061
v -325.129750 1170.475203 -619.779295
v 445.775924 1170.475203 -592.992465
v 515.322276 1170.475203 -495.087189
v 525.428897 1111.489543 456.891084
vt 0.800933 0.946442
vt 0.790900 0.947831
vt 0.758879 0.785207
vt 0.073227 0.043163
vt 0.960370 0.935000
vt 0.947485 0.935925
vt 0.948599 0.770978
vt 0.081853 0.061700
vt 0.080314 0.034071
vt 0.066203 0.049091
vt 0.069634 0.972104
vt 0.243495 0.968078
vt 0.248155 0.968073
vt 0.065266 0.053444
vt 0.760062 0.777776
vt 0.762005 0.948439
vt 0.240225 0.024974
vt 0.248808 0.044721
vt 0.264713 0.945929
vt 0.090023 0.945236
vt 0.934808 0.759016
vt 0.935714 0.771903
vt 0.232008 0.044581
vt 0.069657 0.976241
vt 0.060854 0.988826
vt 0.078013 0.053885
vt 0.242113 0.045867
vt 0.771675 0.783435
vt 0.246615 0.067829
vt 0.227427 0.980612
vt 0.257509 0.950308
vt 0.062898 0.047774
vt 0.066062 0.974192
vt 0.066599 0.707573
vt 0.223891 0.703188
vt 0.253884 0.703152
vt 0.255310 0.302766
vt 0.237446 0.719521
vt 0.242631 0.304353
vt 0.077834 0.309006
vt 0.049540 0.308853
vt 0.230969 0.299128
vt 0.039713 0.706192
vt 0.052001 0.373055
vt 0.224736 0.372448
vt 0.237840 0.372047
vt 0.276559 0.626107
vt 0.270651 0.391811
vt 0.234506 0.626665
vt 0.086843 0.628003
vt 0.049553 0.628246
vt 0.248590 0.627136
vt 0.046022 0.373134
vt 0.064350 0.112352
vt 0.214451 0.115712
vt 0.079168 0.133880
vt 0.260336 0.865583
vt 0.247671 0.149400
vt 0.256185 0.865453
vt 0.090551 0.877732
vt 0.077810 0.877630
vt 0.256839 0.881720
vt 0.051297 0.112350
vt 0.237168 0.598003
vt 0.074774 0.600345
vt 0.091103 0.403858
vt 0.086398 0.408482
vt 0.257627 0.403099
vt 0.099250 0.408682
vt 0.258921 0.406464
vt 0.282563 0.404442
vt 0.233888 0.613237
vt 0.276137 0.598678
vt 0.059559 0.845644
vt 0.064184 0.175732
vt 0.241851 0.163803
vt 0.089023 0.177614
vt 0.241682 0.169185
vt 0.267470 0.165529
vt 0.222466 0.856940
vt 0.252728 0.842809
vt 0.239579 0.843020
vt 0.072738 0.845627
vt 0.220622 0.179363
vt 0.063376 0.185188
vt 0.108870 0.809335
vt 0.078024 0.808126
vt 0.250587 0.810493
vt 0.114057 0.807526
vt 0.239356 0.806697
vt 0.258665 0.808273
vt 0.246647 0.208202
vt 0.246846 0.177862
vt 0.247709 0.970066
vt 0.091110 0.198955
vt 0.057592 0.388198
vt 0.039818 0.183604
vt 0.092183 0.880278
vt 0.062292 0.854481
vt 0.058058 0.977260
vt 0.081524 0.158453
vt 0.093450 0.296937
vt 0.081849 0.612606
vt 0.078274 0.718251
vt 0.066914 0.600467
vt 0.063337 0.626911
vt 0.091612 0.945511
vt 0.224803 0.115990
vt 0.065494 0.972139
vt 0.958869 0.942031
vt 0.232858 0.026892
vt 0.966013 0.947708
vt 0.240532 0.979813
vt 0.960314 0.763050
vt 0.080360 0.030009
vt 0.755011 0.761852
vt 0.246358 0.040564
vt 0.211963 0.987709
vt 0.076480 0.040727
vt 0.232708 0.040339
vt 0.770769 0.770548
vt 0.251980 0.945823
vt 0.946421 0.764675
vt 0.077276 0.945141
vt 0.947889 0.948837
vt 0.245153 0.045502
vt 0.791040 0.944270
vt 0.790710 0.955481
vn -0.787981 -0.609342 0.088255
vn -0.787981 -0.609342 0.088255
vn -0.787981 -0.609342 0.088255
vn -0.787981 -0.609342 0.088255
vn -0.056506 -0.819876 0.569746
vn -0.056506 -0.819876 0.569746
vn -0.056506 -0.819876 0.569746
vn -0.056506 -0.819876 0.569746
vn -0.737207 -0.046104 0.674092
vn -0.737358 -0.043248 0.674116
vn -0.739003 0.004832 0.673684
vn -0.739005 0.004946 0.673681
vn 0.788377 -0.614116 0.036359
vn 0.788377 -0.614116 0.036359
vn 0.788378 -0.614116 0.036359
vn 0.788377 -0.614116 0.036359
vn 0.673651 0.019581 0.738790
vn 0.673564 0.024938 0.738708
vn 0.672723 -0.058252 0.737597
vn 0.672719 -0.058374 0.737592
vn -0.804799 0.592068 -0.041871
vn -0.804799 0.592068 -0.041871
vn -0.804799 0.592068 -0.041871
vn -0.804799 0.592068 -0.041871
vn -0.031542 0.490344 0.870958
vn -0.031542 0.490344 0.870958
vn -0.031542 0.490344 0.870958
vn -0.031542 0.490344 0.870958
vn 0.890974 0.451380 0.049208
vn 0.890974 0.451380 0.049208
vn 0.890974 0.451380 0.049208
vn 0.890974 0.451380 0.049208
vn -0.815758 0.056960 -0.575581
vn -0.827666 0.055450 -0.558475
vn -0.920529 -0.013852 -0.390429
vn -0.917952 -0.005639 -0.396650
vn 0.005564 0.809950 -0.586472
vn 0.005564 0.809950 -0.586472
vn 0.005564 0.809950 -0.586472
vn 0.005564 0.809950 -0.586472
vn 0.739070 -0.002657 -0.673624
vn 0.739019 -0.001799 -0.673682
vn 0.737861 0.040267 -0.673750
vn 0.737668 0.044186 -0.673717
vn 0.036359 -0.614116 -0.788378
vn 0.036359 -0.614116 -0.788378
vn 0.036359 -0.614116 -0.788378
vn 0.036359 -0.614116 -0.788378
vn -0.067717 -0.026718 0.997347
vn -0.068715 -0.027037 0.997270
vn -0.047883 -0.000823 0.998853
vn -0.047919 -0.001246 0.998850
vn -0.003930 0.999985 0.003935
vn -0.003930 0.999985 0.003935
vn -0.003930 0.999985 0.003935
vn -0.003930 0.999985 0.003935
vn 0.021102 0.048866 -0.998582
vn 0.020154 0.050956 -0.998497
vn 0.034575 0.028358 -0.999000
vn 0.034606 0.027846 -0.999013
vn -0.036137 -0.998803 0.032951
vn -0.036137 -0.998803 0.032951
vn -0.036137 -0.998803 0.032951
vn -0.036137 -0.998803 0.032951
vn 0.998818 0.038387 0.029821
vn 0.998627 0.043538 0.029134
vn 0.998533 -0.014575 0.052145
vn 0.998536 -0.012992 0.052505
vn -0.996866 -0.044423 -0.065460
vn -0.997175 -0.037212 -0.065247
vn -0.998373 0.037263 -0.043155
vn -0.998287 0.038090 -0.044419
vn -0.550734 -0.453217 -0.700918
vn -0.550734 -0.453217 -0.700918
vn -0.550734 -0.453217 -0.700918
vn 0.590322 -0.482069 0.647402
vn 0.590322 -0.482069 0.647402
vn 0.590322 -0.482069 0.647402
vn -0.647408 0.482053 0.590328
vn -0.647408 0.482053 0.590328
vn -0.647408 0.482053 0.590328
vn 0.598101 0.460455 0.655940
vn 0.598101 0.460455 0.655940
vn 0.598101 0.460455 0.655940
vn -0.600092 0.454722 -0.658117
vn -0.600092 0.454722 -0.658117
vn -0.600092 0.454722 -0.658117
vn 0.249897 0.892201 -0.376203
vn 0.249897 0.892201 -0.376203
vn 0.249897 0.892201 -0.376203
vn -0.590322 -0.482070 -0.647402
vn -0.590322 -0.482069 -0.647402
vn -0.590322 -0.482069 -0.647402
vn 0.647402 -0.482070 -0.590321
vn 0.647402 -0.482070 -0.590321
vn 0.647402 -0.482070 -0.590321
vn -0.049377 -0.012449 0.998703
vn -0.049788 -0.010441 0.998705
vn -0.073910 0.037366 0.996565
vn -0.074221 0.036237 0.996583
vn 0.680826 -0.035733 0.731573
vn 0.680755 -0.035516 0.731650
vn 0.673444 0.029723 0.738641
vn 0.673438 0.030018 0.738634
vn 0.994759 -0.052676 0.087630
vn 0.994772 -0.052529 0.087572
vn 0.997491 0.000498 0.070792
vn 0.997507 0.001195 0.070558
vn 0.600240 0.079449 -0.795864
vn 0.600898 0.079591 -0.795353
vn 0.572643 -0.006490 -0.819779
vn 0.573129 -0.012275 -0.819373
vn -0.019564 0.066533 -0.997592
vn -0.021168 0.067281 -0.997509
vn -0.053099 0.020560 -0.998377
vn -0.053129 0.020241 -0.998383
vn -0.768665 0.011526 -0.639547
vn -0.758616 0.016501 -0.651329
vn -0.654789 -0.012932 -0.755701
vn -0.654967 -0.012313 -0.755557
vn -0.999640 0.022482 -0.014662
vn -0.999582 0.024968 -0.014575
vn -0.999092 0.032614 -0.027407
vn -0.999047 0.034265 -0.027039
vn -0.954484 -0.028808 0.296869
vn -0.953334 -0.024538 0.300920
vn -0.816384 -0.008691 0.577444
vn -0.811853 -0.015645 0.583652
vn -0.041876 0.012539 0.999044
vn -0.041865 0.012363 0.999047
vn -0.032765 -0.076833 0.996505
vn -0.032455 -0.079872 0.996277
vn 0.685713 0.027871 0.727338
vn 0.685790 0.027195 0.727291
vn 0.691529 -0.066381 0.719292
vn 0.691559 -0.066243 0.719276
vn 0.994861 0.050570 0.087715
vn 0.995742 0.036052 0.084841
vn 0.996086 -0.041190 0.078207
vn 0.996097 -0.041943 0.077660
vn 0.601588 -0.099524 -0.792583
vn 0.608326 -0.094310 -0.788064
vn 0.769840 0.040819 -0.636930
vn 0.772898 0.045082 -0.632926
vn -0.026333 -0.079017 -0.996525
vn -0.025057 -0.079542 -0.996517
vn 0.056016 -0.040084 -0.997625
vn 0.055770 -0.030281 -0.997984
vn -0.635376 -0.033343 -0.771483
vn -0.635516 -0.035096 -0.771290
vn -0.635829 0.075084 -0.768169
vn -0.637556 0.071883 -0.767043
vn -0.999368 -0.031862 -0.015787
vn -0.999285 -0.034844 -0.014648
vn -0.998553 -0.046689 -0.026666
vn -0.998630 -0.044769 -0.027095
vn -0.936283 0.013402 0.350991
vn -0.939831 0.002986 0.341628
vn -0.958793 -0.051360 0.279424
vn -0.958168 -0.048859 0.282006
vn -0.041618 0.008321 0.999099
vn -0.041618 0.008321 0.999099
vn 0.665661 0.154773 0.730028
vn 0.665661 0.154773 0.730028
vn 0.987912 0.117769 0.100796
vn 0.987912 0.117769 0.100796
vn 0.738932 0.000000 -0.673780
vn 0.738932 0.000000 -0.673780
vn 0.054545 0.015863 -0.998385
vn 0.054545 0.015863 -0.998385
vn -0.673780 0.000000 -0.738932
vn -0.673780 0.000000 -0.738932
vn -0.993049 -0.116516 0.016642
vn -0.993049 -0.116516 0.016642
vn -0.969284 -0.154372 0.191463
vn -0.969284 -0.154372 0.191463
vn -0.999378 0.025182 -0.024696
vn -0.999378 0.025182 -0.024696
vn -0.669224 0.071272 -0.739635
vn -0.669224 0.071272 -0.739634
vn 0.004778 0.084784 -0.996388
vn 0.004778 0.084784 -0.996388
vn 0.738701 0.003415 -0.674024
vn 0.738701 0.003415 -0.674024
vn 0.997524 0.031905 0.062667
vn 0.997524 0.031905 0.062667
vn 0.673781 -0.000000 0.738931
vn 0.673781 -0.000000 0.738931
vn -0.046201 0.019218 0.998747
vn -0.046201 0.019218 0.998747
vn -0.738930 0.000669 0.673782
vn -0.738930 0.000669 0.673782
s off
g Pillar_C
usemtl initialShadingGroup
f 1/1/1 3/2/2 19/3/3 21/28/4
f 2/128/5 1/1/6 6/6/7 5/125/8
s 1
f 32/43/9 25/34/10 64/83/11 57/74/12
s off
f 4/5/13 6/6/14 22/22/15 24/7/16
s 2
f 26/35/17 27/36/18 62/81/19 63/82/20
s off
f 7/9/21 9/115/22 14/111/23 13/120/24
f 9/24/25 8/11/26 11/12/27 10/113/28
f 10/25/29 12/100/30 18/30/31 17/118/32
s 3
f 58/75/33 59/77/34 30/40/35 31/41/36
s off
f 15/26/37 14/119/38 17/17/39 16/27/40
s 4
f 60/78/41 61/79/42 28/37/43 29/39/44
s off
f 21/28/45 20/121/46 23/21/47 22/22/48
s 5
f 25/34/49 26/35/50 63/82/51 64/83/52
s off
f 9/116/53 10/114/54 17/112/55 14/16/56
s 6
f 59/77/57 60/78/58 29/39/59 30/40/60
s off
f 21/28/61 22/22/62 6/6/63 1/1/64
s 7
f 27/104/65 28/38/66 61/80/67 62/99/68
s 8
f 31/42/69 32/102/70 57/101/71 58/76/72
s off
f 1/1/73 2/128/74 3/127/75
f 4/110/76 5/125/77 6/6/78
f 7/33/79 8/11/80 9/24/81
f 10/113/82 11/12/83 12/94/84
f 13/10/85 14/119/86 15/26/87
f 16/27/88 17/17/89 18/117/90
f 19/15/91 20/121/92 21/28/93
f 22/22/94 23/21/95 24/123/96
s 5
f 33/44/97 34/45/98 49/64/99 50/65/100
s 2
f 34/45/101 35/46/102 56/73/103 49/64/104
s 7
f 35/96/105 36/48/106 55/72/107 56/103/108
s 4
f 54/70/109 55/71/110 36/47/111 37/49/112
s 6
f 53/69/113 54/70/114 37/49/115 38/50/116
s 3
f 52/67/117 53/69/118 38/50/119 39/51/120
s 8
f 39/52/121 40/106/122 51/66/123 52/68/124
s 1
f 40/53/125 33/44/126 50/65/127 51/105/128
s 5
f 41/54/129 42/55/130 65/84/131 66/85/132
s 2
f 42/55/133 43/108/134 72/93/135 65/84/136
s 7
f 43/56/137 44/58/138 71/92/139 72/95/140
s 4
f 70/90/141 71/91/142 44/57/143 45/59/144
s 6
f 69/89/145 70/90/146 45/59/147 46/60/148
s 3
f 68/87/149 69/89/150 46/60/151 47/61/152
s 8
f 47/62/153 48/98/154 67/86/155 68/88/156
s 1
f 48/63/157 41/54/158 66/85/159 67/97/160
s 5
f 2/4/161 5/23/162 42/55/130 41/54/129
s 2
f 5/23/163 4/126/164 43/108/134 42/55/133
s 7
f 4/8/165 24/29/166 44/58/138 43/56/137
s 4
f 45/59/144 44/57/143 24/19/167 23/122/168
s 6
f 46/60/148 45/59/147 23/122/169 20/20/170
s 3
f 47/61/152 46/60/151 20/20/171 19/124/172
s 8
f 19/31/173 3/107/174 48/98/154 47/62/153
s 1
f 3/32/175 2/4/176 41/54/158 48/63/157
s 5
f 50/65/100 49/64/99 26/35/50 25/34/49
s 1
f 51/105/128 50/65/127 25/34/10 32/43/9
s 8
f 52/68/124 51/66/123 32/102/70 31/42/69
s 3
f 31/41/36 30/40/35 53/69/118 52/67/117
s 6
f 30/40/60 29/39/59 54/70/114 53/69/113
s 4
f 29/39/44 28/37/43 55/71/110 54/70/109
s 7
f 56/103/108 55/72/107 28/38/66 27/104/65
s 2
f 49/64/104 56/73/103 27/36/18 26/35/17
s 8
f 58/76/72 57/101/71 7/9/177 13/120/178
s 3
f 13/14/179 15/26/180 59/77/34 58/75/33
s 6
f 15/26/181 16/27/182 60/78/58 59/77/57
s 4
f 16/27/183 18/18/184 61/79/42 60/78/41
s 7
f 62/99/68 61/80/67 18/30/185 12/100/186
s 2
f 63/82/20 62/81/19 12/13/187 11/12/188
s 5
f 64/83/52 63/82/51 11/12/189 8/11/190
s 1
f 57/74/12 64/83/11 8/11/191 7/109/192
s 5
f 66/85/132 65/84/131 34/45/98 33/44/97
s 1
f 67/97/160 66/85/159 33/44/126 40/53/125
s 8
f 68/88/156 67/86/155 40/106/122 39/52/121
s 3
f 39/51/120 38/50/119 69/89/150 68/87/149
s 6
f 38/50/116 37/49/115 70/90/146 69/89/145
s 4
f 37/49/112 36/47/111 71/91/142 70/90/141
s 7
f 72/95/140 71/92/139 36/48/106 35/96/105
s 2
f 65/84/136 72/93/135 35/46/102 34/45/101
