# This file uses centimeters as units for non-parametric coordinates.

mtllib pillar_B.mtl
g default
v -418.254042 65.942258 485.545084
v -485.787031 71.874470 534.772054
v -462.135817 122.395651 483.521285
v 536.453969 71.874470 529.574702
v 477.905779 71.874470 582.960752
v 480.486849 -0.126687 526.993703
v -537.920556 7220.406555 424.291073
v -521.154538 7220.406555 442.678310
v -520.343928 7243.019568 425.101646
v 506.373280 7267.713501 453.257146
v 522.712658 7195.712622 491.971905
v 543.419774 7195.712622 473.090435
v -510.650358 7195.712622 -603.311223
v -454.683309 7267.713501 -600.730225
v -452.102167 7195.712622 -656.697345
v 566.703334 7212.619885 -592.915370
v 565.334485 7250.805664 -563.233066
v 595.016789 7212.619885 -561.864181
v -536.536754 71.874470 -529.574702
v -477.988563 71.874470 -582.960752
v -480.569633 -0.126687 -526.993703
v 526.952311 -0.126687 -480.528241
v 529.533309 71.874470 -536.495361
v 582.919360 71.874470 -477.947171
v -566.083801 4858.796545 404.729230
v 404.324882 4862.442603 485.035360
v 537.099595 4862.442603 363.967760
v 546.451653 4860.368567 -609.713123
v 493.065530 4858.796545 -668.261528
v -533.906164 4863.060510 -696.991870
v -553.554568 4863.060510 -679.075845
v -619.469852 4857.703589 346.181004
v -637.817824 1934.880475 634.207469
v 416.188086 1934.880475 606.685475
v 474.736276 1934.880475 553.299389
v 512.068129 1934.880475 -464.238993
v 476.948940 1934.880475 -502.753555
v -483.189645 1934.880475 -610.770006
v -654.770914 1934.880475 -454.316002
v -647.898196 1934.880475 534.455929
v -529.616094 611.799350 536.495361
v 369.682068 545.730486 565.858528
v 415.587570 545.730414 524.000516
v 564.922080 611.799422 -497.684575
v 547.530553 611.799422 -516.757850
v -477.988563 611.799493 -582.960752
v -536.536754 611.799350 -529.574702
v -583.002145 611.799493 477.947171
v 578.361501 4323.627362 438.386806
v -455.250800 4323.627362 393.984227
v -487.001582 4323.627362 359.163198
v -451.353736 4323.627362 -660.222273
v -392.805582 4323.627362 -713.608395
v 591.717481 4323.627362 -692.365379
v 691.101080 4323.627362 -583.372153
v 606.364102 4323.627362 412.853469
v -557.115820 5534.846106 404.210578
v -538.352324 5548.807263 -578.051771
v -424.400273 5548.807263 -681.956833
v 556.354456 5539.467505 -609.207021
v 607.870934 5539.467505 -552.708590
v 562.340257 5548.807263 455.838145
v 503.792103 5548.807263 509.224159
v -503.729734 5534.846106 462.758804
v 412.763417 891.345290 567.819467
v -514.330157 932.682426 519.249274
v -549.863401 932.682426 461.524316
v -503.029245 932.682426 -566.393209
v -444.481055 932.682426 -619.779295
v 545.097290 932.682426 -592.992465
v 634.370325 932.682426 -495.087189
v 525.277377 891.345290 456.891084
vt 0.761056 0.957917
vt 0.748503 0.958149
vt 0.733038 0.753281
vt 0.103408 0.055379
vt 0.098218 0.064088
vt 0.958971 0.967312
vt 0.942976 0.966552
vt 0.968636 0.763705
vt 0.079908 0.048995
vt 0.749687 0.755775
vt 0.740871 0.960677
vt 0.070864 0.992853
vt 0.971413 0.749606
vt 0.251455 0.993481
vt 0.064364 0.017076
vt 0.081773 0.933546
vt 0.756607 0.958656
vt 0.956859 0.972991
vt 0.251922 0.011407
vt 0.266968 0.931892
vt 0.094298 0.930960
vt 0.254525 0.929296
vt 0.952641 0.762945
vt 0.239450 0.052050
vt 0.754728 0.755612
vt 0.967501 0.763239
vt 0.754244 0.974341
vt 0.245015 0.011622
vt 0.093155 0.943798
vt 0.248885 0.053541
vt 0.247293 0.993883
vt 0.250147 0.941244
vt 0.090947 0.061374
vt 0.750405 0.753044
vt 0.238500 0.038855
vt 0.069455 0.684350
vt 0.233562 0.686733
vt 0.263918 0.686871
vt 0.252352 0.312037
vt 0.265330 0.686901
vt 0.239259 0.313125
vt 0.070373 0.316550
vt 0.066010 0.316619
vt 0.256005 0.322881
vt 0.056152 0.683515
vt 0.068603 0.299808
vt 0.244355 0.301141
vt 0.257638 0.301449
vt 0.257678 0.688907
vt 0.244547 0.299680
vt 0.249061 0.688903
vt 0.088695 0.692081
vt 0.050527 0.693924
vt 0.230781 0.701291
vt 0.052077 0.299987
vt 0.079650 0.126524
vt 0.234488 0.118822
vt 0.078159 0.114011
vt 0.265468 0.862070
vt 0.251134 0.124061
vt 0.261176 0.861654
vt 0.090492 0.860924
vt 0.077466 0.862221
vt 0.247468 0.872395
vt 0.067014 0.123371
vt 0.262177 0.616049
vt 0.086924 0.614019
vt 0.088540 0.399224
vt 0.080240 0.386260
vt 0.255730 0.393796
vt 0.093252 0.385509
vt 0.254307 0.381237
vt 0.278499 0.381079
vt 0.263398 0.612717
vt 0.268536 0.616394
vt 0.065530 0.772266
vt 0.060073 0.228002
vt 0.237504 0.235724
vt 0.085490 0.228098
vt 0.247974 0.225459
vt 0.260546 0.224939
vt 0.253167 0.775743
vt 0.260552 0.777677
vt 0.247261 0.777640
vt 0.078830 0.772646
vt 0.241984 0.163594
vt 0.080567 0.168736
vt 0.084197 0.834421
vt 0.082980 0.820035
vt 0.252911 0.830997
vt 0.095933 0.819396
vt 0.257262 0.818950
vt 0.278833 0.819356
vt 0.251996 0.167491
vt 0.268509 0.161949
vt 0.976442 0.752202
vt 0.091400 0.162185
vt 0.073900 0.298374
vt 0.069032 0.167822
vt 0.082097 0.875763
vt 0.084019 0.771293
vt 0.981378 0.761063
vt 0.076459 0.240843
vt 0.087586 0.327666
vt 0.095841 0.610797
vt 0.102203 0.682205
vt 0.078975 0.614123
vt 0.068688 0.705901
vt 0.083431 0.941279
vt 0.245000 0.117276
vt 0.066679 0.992778
vt 0.251969 0.048049
vt 0.957258 0.981510
vt 0.077397 0.016988
vt 0.073792 0.985872
vt 0.965138 0.974730
vt 0.754794 0.750582
vt 0.246743 0.993393
vt 0.237376 0.025470
vt 0.068765 0.025836
vt 0.255859 0.942281
vt 0.749048 0.752984
vn -0.787981 -0.609341 0.088255
vn -0.787981 -0.609341 0.088255
vn -0.787981 -0.609341 0.088255
vn -0.787981 -0.609341 0.088255
vn -0.056506 -0.819876 0.569746
vn -0.056506 -0.819876 0.569746
vn -0.056506 -0.819876 0.569746
vn -0.056506 -0.819876 0.569746
vn -0.737382 -0.057187 0.673051
vn -0.737377 -0.057287 0.673048
vn -0.738943 0.003984 0.673756
vn -0.738944 0.004358 0.673753
vn 0.788378 -0.614116 0.036359
vn 0.788378 -0.614116 0.036359
vn 0.788378 -0.614116 0.036359
vn 0.788378 -0.614116 0.036359
vn 0.673600 -0.023021 0.738737
vn 0.673750 -0.009328 0.738901
vn 0.672424 -0.063414 0.737445
vn 0.672408 -0.063789 0.737427
vn -0.788411 0.614114 -0.035681
vn -0.788411 0.614114 -0.035681
vn -0.788411 0.614114 -0.035681
vn -0.788411 0.614114 -0.035681
vn -0.032215 0.507128 0.861269
vn -0.032215 0.507128 0.861269
vn -0.032215 0.507128 0.861269
vn -0.032215 0.507128 0.861269
vn 0.850541 0.523907 0.045837
vn 0.850541 0.523907 0.045837
vn 0.850541 0.523907 0.045837
vn 0.850541 0.523907 0.045837
vn -0.673492 0.029292 -0.738614
vn -0.673498 0.028991 -0.738621
vn -0.673422 0.032631 -0.738538
vn -0.673136 0.043738 -0.738224
vn 0.039156 0.614113 -0.788246
vn 0.039156 0.614113 -0.788246
vn 0.039156 0.614113 -0.788246
vn 0.039156 0.614113 -0.788246
vn 0.738957 -0.002514 -0.673748
vn 0.738955 -0.002069 -0.673751
vn 0.735867 0.085062 -0.671762
vn 0.735798 0.086068 -0.671709
vn 0.036359 -0.614116 -0.788378
vn 0.036359 -0.614116 -0.788378
vn 0.036359 -0.614116 -0.788378
vn 0.036359 -0.614116 -0.788378
vn -0.062735 -0.059889 0.996232
vn -0.062676 -0.060522 0.996197
vn -0.050947 -0.005308 0.998687
vn -0.051596 -0.007762 0.998638
vn -0.003919 0.999986 0.003573
vn -0.003919 0.999986 0.003573
vn -0.003919 0.999986 0.003573
vn -0.003919 0.999986 0.003573
vn 0.062736 0.023588 -0.997751
vn 0.063210 0.022632 -0.997744
vn 0.039024 0.045739 -0.998191
vn 0.039861 0.045877 -0.998151
vn -0.036137 -0.998803 0.032951
vn -0.036137 -0.998803 0.032951
vn -0.036137 -0.998803 0.032951
vn -0.036137 -0.998803 0.032951
vn 0.998109 0.049525 0.036420
vn 0.997907 0.053249 0.036684
vn 0.999043 -0.013091 0.041737
vn 0.999045 -0.010583 0.042381
vn -0.996606 -0.068641 -0.045447
vn -0.997123 -0.060830 -0.045229
vn -0.999226 0.027444 -0.028193
vn -0.999185 0.028479 -0.028596
vn -0.550734 -0.453218 -0.700918
vn -0.550733 -0.453218 -0.700918
vn -0.550733 -0.453218 -0.700918
vn 0.590322 -0.482069 0.647402
vn 0.590322 -0.482069 0.647402
vn 0.590322 -0.482069 0.647402
vn -0.647394 0.482044 0.590351
vn -0.647394 0.482044 0.590351
vn -0.647394 0.482044 0.590351
vn 0.590321 0.482068 0.647404
vn 0.590321 0.482068 0.647404
vn 0.590321 0.482067 0.647404
vn -0.590319 0.482069 -0.647405
vn -0.590319 0.482069 -0.647405
vn -0.590319 0.482069 -0.647405
vn 0.647405 0.482073 -0.590316
vn 0.647405 0.482073 -0.590316
vn 0.647405 0.482073 -0.590316
vn -0.590322 -0.482069 -0.647402
vn -0.590322 -0.482069 -0.647402
vn -0.590322 -0.482069 -0.647402
vn 0.647402 -0.482069 -0.590321
vn 0.647402 -0.482069 -0.590321
vn 0.647402 -0.482069 -0.590321
vn -0.009242 0.040331 0.999144
vn -0.009231 0.040763 0.999126
vn -0.016335 0.062044 0.997940
vn -0.018268 0.056492 0.998236
vn 0.682924 -0.011710 0.730396
vn 0.682742 -0.011347 0.730571
vn 0.672912 0.050711 0.737982
vn 0.672829 0.053097 0.737891
vn 0.997678 -0.020531 0.064946
vn 0.997682 -0.020199 0.064982
vn 0.998241 -0.012004 0.058054
vn 0.998145 -0.017500 0.058321
vn 0.738334 -0.034063 -0.673574
vn 0.738122 -0.042486 -0.673329
vn 0.738553 -0.031942 -0.673438
vn 0.738522 -0.033227 -0.673410
vn 0.057646 -0.041498 -0.997474
vn 0.059041 -0.045138 -0.997235
vn 0.067086 -0.028989 -0.997326
vn 0.067078 -0.029340 -0.997316
vn -0.673688 -0.016769 -0.738826
vn -0.673698 -0.015821 -0.738837
vn -0.673748 -0.010141 -0.738892
vn -0.673748 -0.010055 -0.738893
vn -0.999747 0.015849 -0.015968
vn -0.999738 0.016417 -0.015952
vn -0.999530 0.022629 -0.020704
vn -0.999631 0.016686 -0.021430
vn -0.956603 0.020223 0.290690
vn -0.956596 0.020401 0.290704
vn -0.931666 0.054765 0.359166
vn -0.927331 0.047106 0.371265
vn -0.041185 0.016395 0.999017
vn -0.041198 0.015298 0.999034
vn -0.018751 -0.052534 0.998443
vn -0.018402 -0.053765 0.998384
vn 0.684430 0.036582 0.728160
vn 0.684814 0.032762 0.727981
vn 0.692420 -0.042160 0.720262
vn 0.692413 -0.044237 0.720144
vn 0.994372 0.005673 0.105791
vn 0.993925 -0.025760 0.107002
vn 0.996343 -0.000538 0.085447
vn 0.996187 -0.010379 0.086628
vn 0.737676 0.058265 -0.672637
vn 0.737756 0.056359 -0.672710
vn 0.736847 -0.075069 -0.671879
vn 0.736813 -0.075682 -0.671848
vn 0.063132 -0.006019 -0.997987
vn 0.063074 -0.006604 -0.997987
vn 0.051813 -0.055444 -0.997117
vn 0.051975 -0.052217 -0.997282
vn -0.673664 -0.018695 -0.738801
vn -0.673664 -0.018731 -0.738801
vn -0.673770 -0.005696 -0.738919
vn -0.673772 -0.005037 -0.738922
vn -0.999523 -0.029698 -0.008468
vn -0.999353 -0.035305 -0.006851
vn -0.997297 -0.068707 -0.026038
vn -0.997329 -0.068220 -0.026096
vn -0.915828 -0.039898 0.399585
vn -0.921484 -0.048207 0.385413
vn -0.931543 -0.083410 0.353937
vn -0.931129 -0.082610 0.355210
vn -0.041272 0.008966 0.999108
vn -0.041272 0.008966 0.999108
vn 0.663059 0.177681 0.727174
vn 0.663059 0.177681 0.727174
vn 0.985488 0.137474 0.099567
vn 0.985488 0.137474 0.099567
vn 0.738932 0.000000 -0.673780
vn 0.738932 0.000000 -0.673780
vn 0.055325 0.017325 -0.998318
vn 0.055325 0.017325 -0.998318
vn -0.673781 0.000000 -0.738931
vn -0.673781 0.000000 -0.738931
vn -0.993049 -0.116516 0.016642
vn -0.993049 -0.116516 0.016642
vn -0.969284 -0.154372 0.191463
vn -0.969284 -0.154372 0.191463
vn -0.999638 0.014032 -0.022971
vn -0.999638 0.014032 -0.022970
vn -0.673781 0.000000 -0.738931
vn -0.673781 0.000000 -0.738931
vn 0.068068 0.012841 -0.997598
vn 0.068068 0.012841 -0.997598
vn 0.738932 0.001990 -0.673777
vn 0.738932 0.001990 -0.673777
vn 0.998826 0.009443 0.047509
vn 0.998826 0.009443 0.047509
vn 0.673781 -0.000000 0.738931
vn 0.673781 -0.000000 0.738931
vn -0.046568 0.011211 0.998852
vn -0.046568 0.011211 0.998852
vn -0.738932 0.000388 0.673780
vn -0.738932 0.000388 0.673780
s off
g Pillar_B
usemtl initialShadingGroup
f 1/1/1 3/2/2 19/3/3 21/122/4
f 2/5/5 1/4/6 6/35/7 5/24/8
s 1
f 32/45/9 25/36/10 64/85/11 57/76/12
s off
f 4/6/13 6/7/14 22/23/15 24/8/16
s 2
f 26/37/17 27/38/18 62/83/19 63/84/20
s off
f 7/10/21 9/25/22 14/17/23 13/11/24
f 9/25/25 8/117/26 11/13/27 10/26/28
f 10/26/29 12/102/30 18/116/31 17/18/32
s 3
f 58/77/33 59/79/34 30/42/35 31/43/36
s off
f 15/27/37 14/17/38 17/18/39 16/113/40
s 4
f 60/80/41 61/81/42 28/39/43 29/41/44
s off
f 21/29/45 20/21/46 23/22/47 22/121/48
s 5
f 25/36/49 26/37/50 63/84/51 64/85/52
s off
f 9/25/53 10/26/54 17/18/55 14/17/56
s 6
f 59/79/57 60/80/58 29/41/59 30/42/60
s off
f 21/122/61 22/23/62 6/7/63 1/1/64
s 7
f 27/106/65 28/40/66 61/82/67 62/101/68
s 8
f 31/44/69 32/104/70 57/103/71 58/78/72
s off
f 1/4/73 2/5/74 3/33/75
f 4/112/76 5/24/77 6/35/78
f 7/34/79 8/117/80 9/25/81
f 10/26/82 11/13/83 12/96/84
f 13/11/85 14/17/86 15/27/87
f 16/113/88 17/18/89 18/116/90
f 19/16/91 20/21/92 21/29/93
f 22/121/94 23/22/95 24/20/96
s 5
f 33/46/97 34/47/98 49/66/99 50/67/100
s 2
f 34/47/101 35/48/102 56/75/103 49/66/104
s 7
f 35/98/105 36/50/106 55/74/107 56/105/108
s 4
f 54/72/109 55/73/110 36/49/111 37/51/112
s 6
f 53/71/113 54/72/114 37/51/115 38/52/116
s 3
f 52/69/117 53/71/118 38/52/119 39/53/120
s 8
f 39/54/121 40/108/122 51/68/123 52/70/124
s 1
f 40/55/125 33/46/126 50/67/127 51/107/128
s 5
f 41/56/129 42/57/130 65/86/131 66/87/132
s 2
f 42/57/133 43/110/134 72/95/135 65/86/136
s 7
f 43/58/137 44/60/138 71/94/139 72/97/140
s 4
f 70/92/141 71/93/142 44/59/143 45/61/144
s 6
f 69/91/145 70/92/146 45/61/147 46/62/148
s 3
f 68/89/149 69/91/150 46/62/151 47/63/152
s 8
f 47/64/153 48/100/154 67/88/155 68/90/156
s 1
f 48/65/157 41/56/158 66/87/159 67/99/160
s 5
f 2/5/161 5/24/162 42/57/130 41/56/129
s 2
f 5/24/163 4/112/164 43/110/134 42/57/133
s 7
f 4/9/165 24/30/166 44/60/138 43/58/137
s 4
f 45/61/144 44/59/143 24/20/167 23/22/168
s 6
f 46/62/148 45/61/147 23/22/169 20/21/170
s 3
f 47/63/152 46/62/151 20/21/171 19/16/172
s 8
f 19/32/173 3/109/174 48/100/154 47/64/153
s 1
f 3/33/175 2/5/176 41/56/158 48/65/157
s 5
f 50/67/100 49/66/99 26/37/50 25/36/49
s 1
f 51/107/128 50/67/127 25/36/10 32/45/9
s 8
f 52/70/124 51/68/123 32/104/70 31/44/69
s 3
f 31/43/36 30/42/35 53/71/118 52/69/117
s 6
f 30/42/60 29/41/59 54/72/114 53/71/113
s 4
f 29/41/44 28/39/43 55/73/110 54/72/109
s 7
f 56/105/108 55/74/107 28/40/66 27/106/65
s 2
f 49/66/104 56/75/103 27/38/18 26/37/17
s 8
f 58/78/72 57/103/71 7/120/177 13/119/178
s 3
f 13/15/179 15/114/180 59/79/34 58/77/33
s 6
f 15/114/181 16/28/182 60/80/58 59/79/57
s 4
f 16/28/183 18/19/184 61/81/42 60/80/41
s 7
f 62/101/68 61/82/67 18/31/185 12/115/186
s 2
f 63/84/20 62/83/19 12/14/187 11/118/188
s 5
f 64/85/52 63/84/51 11/118/189 8/12/190
s 1
f 57/76/12 64/85/11 8/12/191 7/111/192
s 5
f 66/87/132 65/86/131 34/47/98 33/46/97
s 1
f 67/99/160 66/87/159 33/46/126 40/55/125
s 8
f 68/90/156 67/88/155 40/108/122 39/54/121
s 3
f 39/53/120 38/52/119 69/91/150 68/89/149
s 6
f 38/52/116 37/51/115 70/92/146 69/91/145
s 4
f 37/51/112 36/49/111 71/93/142 70/92/141
s 7
f 72/97/140 71/94/139 36/50/106 35/98/105
s 2
f 65/86/136 72/95/135 35/48/102 34/47/101
