# This file uses centimeters as units for non-parametric coordinates.

mtllib pillar_F.mtl
g default
v -89.022797 11.224215 165.291946
v -103.391518 12.233953 182.050064
v -98.359344 20.833302 164.602997
v 114.106567 12.233953 180.280746
v 101.649506 12.233953 198.454727
v 102.198669 -0.021564 179.402115
v -114.483757 1229.005371 144.439514
v -110.916519 1229.005371 150.699005
v -110.744049 1232.854370 144.715454
v 107.706421 1237.057617 154.300308
v 111.182884 1224.802124 167.479797
v 115.588654 1224.802124 161.052063
v -108.681587 1224.802124 -205.382538
v -96.773705 1237.057617 -204.503906
v -96.224525 1224.802124 -223.556549
v 120.542603 1227.679932 -201.843536
v 120.251358 1234.179688 -191.738922
v 126.566742 1227.679932 -191.272919
v -114.189331 12.233953 -180.280746
v -101.732269 12.233953 -198.454727
v -102.281433 -0.021564 -179.402115
v 112.084938 -0.021564 -163.584076
v 112.634087 12.233953 -182.636719
v 123.992821 12.233953 -162.705414
v -120.475937 827.029175 137.780167
v 85.993996 827.649780 165.118423
v 114.243935 827.649780 123.903915
v 116.233734 827.296753 -207.561920
v 104.874985 827.029175 -227.493286
v -113.629631 827.755005 -237.273834
v -117.810143 827.755005 -231.174759
v -131.834671 826.843140 117.848854
v -135.738495 329.341370 215.900421
v 88.518082 329.341370 206.531219
v 100.975143 329.341370 188.357239
v 108.918091 329.341370 -158.038803
v 101.445923 329.341370 -171.150146
v -102.838882 329.341370 -207.921707
v -139.345535 329.341370 -154.660767
v -137.883255 329.341370 181.942444
v -112.716850 104.136063 182.636719
v 78.623184 92.890297 192.632690
v 88.390312 92.890282 178.383148
v 120.163612 104.136070 -169.424530
v 116.463287 104.136070 -175.917572
v -101.732269 104.136086 -198.454727
v -114.189331 104.136063 -180.280746
v -124.075584 104.136086 162.705414
v 123.023064 735.936584 149.238068
v -96.894447 735.936584 134.122284
v -103.649933 735.936584 122.268326
v -96.065285 735.936584 -224.756516
v -83.608231 735.936584 -242.930511
v 125.864761 735.936584 -235.698853
v 147.010208 735.936584 -198.594772
v 128.981064 735.936584 140.545868
v -118.567856 942.101440 137.603607
v -114.575623 944.477844 -196.783585
v -90.330505 944.477844 -232.155518
v 118.340714 942.888062 -207.389618
v 129.301666 942.888062 -188.156113
v 119.614288 944.477844 155.178940
v 107.157234 944.477844 173.352905
v -107.209114 942.101440 157.534912
v 87.789429 151.718353 193.300247
v -109.464523 158.754456 176.765717
v -117.024788 158.754456 157.114655
v -107.060074 158.754456 -192.814713
v -94.603012 158.754456 -210.988693
v 115.945572 158.754456 -201.869781
v 134.939835 158.754456 -168.540314
v 111.728569 151.718353 155.537384
vt 0.761997 0.956966
vt 0.747708 0.957609
vt 0.731688 0.754866
vt 0.071608 0.030336
vt 0.068781 0.043467
vt 0.960422 0.965989
vt 0.942198 0.965160
vt 0.969583 0.764519
vt 0.015093 0.109783
vt 0.750421 0.756690
vt 0.740203 0.958201
vt 0.038946 0.967562
vt 0.971933 0.749006
vt 0.214690 0.967759
vt 0.031999 0.041726
vt 0.049396 0.949509
vt 0.757850 0.955111
vt 0.953051 0.973239
vt 0.218158 0.036650
vt 0.228770 0.950063
vt 0.064086 0.944215
vt 0.213631 0.944539
vt 0.951360 0.763691
vt 0.204965 0.034374
vt 0.756155 0.756440
vt 0.968004 0.765196
vt 0.754246 0.972651
vt 0.209164 0.037008
vt 0.061833 0.960733
vt 0.226421 0.110139
vt 0.247539 0.865519
vt 0.226948 0.882422
vt 0.058615 0.038023
vt 0.751734 0.752820
vt 0.205604 0.017653
vt 0.036219 0.662331
vt 0.195278 0.663685
vt 0.233459 0.663061
vt 0.219799 0.332464
vt 0.258823 0.618496
vt 0.202695 0.334305
vt 0.041002 0.337361
vt 0.035560 0.337356
vt 0.251633 0.385944
vt 0.018851 0.660971
vt 0.040035 0.277519
vt 0.207443 0.280462
vt 0.224051 0.281244
vt 0.226818 0.706503
vt 0.225476 0.307916
vt 0.215612 0.706201
vt 0.059163 0.708258
vt 0.011412 0.711502
vt 0.209306 0.689575
vt 0.015199 0.277885
vt 0.051288 0.104908
vt 0.201180 0.099986
vt 0.015717 0.161931
vt 0.229395 0.880429
vt 0.230876 0.166765
vt 0.223777 0.879478
vt 0.058514 0.874810
vt 0.042266 0.877414
vt 0.225988 0.827076
vt 0.034681 0.100872
vt 0.221527 0.592935
vt 0.051368 0.592057
vt 0.039731 0.445640
vt 0.045321 0.406992
vt 0.248781 0.442838
vt 0.061560 0.405672
vt 0.215057 0.401326
vt 0.246307 0.401705
vt 0.253633 0.559092
vt 0.229505 0.593565
vt 0.029228 0.749294
vt 0.023288 0.249197
vt 0.230419 0.315762
vt 0.055114 0.250063
vt 0.212022 0.247463
vt 0.228403 0.246502
vt 0.246652 0.690103
vt 0.224564 0.753667
vt 0.207925 0.753962
vt 0.046600 0.749877
vt 0.207135 0.144646
vt 0.049537 0.146437
vt 0.022608 0.795148
vt 0.048541 0.834495
vt 0.233457 0.793882
vt 0.064616 0.833328
vt 0.217466 0.835524
vt 0.244954 0.837128
vt 0.231485 0.201612
vt 0.241129 0.142525
vt 0.977075 0.751193
vt 0.031337 0.200314
vt 0.012091 0.310084
vt 0.033474 0.144271
vt 0.019320 0.828326
vt 0.035111 0.689896
vt 0.984463 0.763967
vt 0.029011 0.318452
vt 0.041253 0.388273
vt 0.044474 0.560731
vt 0.054676 0.617949
vt 0.041015 0.592541
vt 0.006574 0.691797
vt 0.018941 0.880848
vt 0.214660 0.098203
vt 0.033460 0.967494
vt 0.219498 0.028325
vt 0.953683 0.982920
vt 0.048312 0.041866
vt 0.030456 0.862536
vt 0.962268 0.975870
vt 0.756239 0.750722
vt 0.208761 0.967675
vt 0.234587 0.146853
vt 0.023843 0.145656
vt 0.216814 0.960671
vt 0.749913 0.754045
vn -0.718097 -0.694125 0.050268
vn -0.718097 -0.694125 0.050268
vn -0.718097 -0.694125 0.050268
vn -0.718097 -0.694125 0.050268
vn -0.052011 -0.943326 0.327767
vn -0.052011 -0.943326 0.327767
vn -0.052011 -0.943326 0.327767
vn -0.052011 -0.943326 0.327767
vn -0.865337 -0.086515 0.493668
vn -0.865783 -0.080584 0.493888
vn -0.868813 0.005693 0.495107
vn -0.868811 0.006589 0.495101
vn 0.716312 -0.697474 0.020647
vn 0.716312 -0.697474 0.020647
vn 0.716312 -0.697474 0.020647
vn 0.716312 -0.697474 0.020647
vn 0.824093 -0.042443 0.564863
vn 0.824784 -0.011227 0.565337
vn 0.820656 -0.100548 0.562506
vn 0.820984 -0.096529 0.562732
vn -0.716334 0.697463 -0.020262
vn -0.716334 0.697463 -0.020262
vn -0.716334 0.697463 -0.020262
vn -0.716334 0.697463 -0.020262
vn -0.038708 0.761684 0.646792
vn -0.038708 0.761684 0.646792
vn -0.038708 0.761684 0.646792
vn -0.038708 0.761684 0.646792
vn 0.792064 0.609855 0.026679
vn 0.792064 0.609855 0.026679
vn 0.792064 0.609855 0.026679
vn 0.792064 0.609855 0.026679
vn -0.824113 0.041874 -0.564875
vn -0.823991 0.045276 -0.564791
vn -0.823906 0.047486 -0.564733
vn -0.822735 0.071341 -0.563931
vn 0.042889 0.840815 -0.539621
vn 0.042889 0.840815 -0.539621
vn 0.042889 0.840815 -0.539621
vn 0.042889 0.840815 -0.539621
vn 0.868829 -0.003912 -0.495098
vn 0.868829 -0.002838 -0.495104
vn 0.861940 0.123350 -0.491777
vn 0.861062 0.131080 -0.491315
vn 0.039828 -0.840884 -0.539747
vn 0.039828 -0.840885 -0.539747
vn 0.039828 -0.840885 -0.539747
vn 0.039828 -0.840885 -0.539747
vn -0.099544 -0.118707 0.987927
vn -0.099432 -0.120055 0.987775
vn -0.081221 -0.009994 0.996646
vn -0.082441 -0.015803 0.996471
vn -0.003135 0.999994 0.001787
vn -0.003135 0.999994 0.001787
vn -0.003135 0.999994 0.001787
vn -0.003135 0.999994 0.001787
vn 0.099840 0.047362 -0.993876
vn 0.100904 0.044693 -0.993892
vn 0.062111 0.091073 -0.993905
vn 0.063651 0.091385 -0.993779
vn -0.028928 -0.999446 0.016486
vn -0.028928 -0.999446 0.016486
vn -0.028928 -0.999446 0.016486
vn -0.028928 -0.999446 0.016486
vn 0.997924 0.060270 0.022700
vn 0.997381 0.068581 0.022990
vn 0.999515 -0.017162 0.025997
vn 0.999576 -0.011536 0.026720
vn -0.995262 -0.092966 -0.028478
vn -0.996944 -0.072846 -0.028214
vn -0.999289 0.033423 -0.017449
vn -0.999167 0.036594 -0.018066
vn -0.609611 -0.627087 -0.484908
vn -0.609611 -0.627087 -0.484908
vn -0.609611 -0.627087 -0.484908
vn 0.630968 -0.644077 0.432487
vn 0.630968 -0.644077 0.432487
vn 0.630968 -0.644077 0.432487
vn -0.675570 0.628788 0.385007
vn -0.675570 0.628788 0.385007
vn -0.675570 0.628788 0.385007
vn 0.630967 0.644073 0.432494
vn 0.630967 0.644073 0.432494
vn 0.630967 0.644073 0.432494
vn -0.630966 0.644076 -0.432492
vn -0.630965 0.644076 -0.432491
vn -0.630966 0.644076 -0.432492
vn 0.675563 0.628796 -0.385007
vn 0.675563 0.628796 -0.385007
vn 0.675563 0.628796 -0.385007
vn -0.630967 -0.644077 -0.432487
vn -0.630967 -0.644077 -0.432487
vn -0.630967 -0.644077 -0.432487
vn 0.675564 -0.628799 -0.385000
vn 0.675564 -0.628799 -0.385000
vn 0.675564 -0.628799 -0.385000
vn -0.014739 0.080969 0.996608
vn -0.014715 0.082051 0.996520
vn -0.025523 0.124962 0.991833
vn -0.029364 0.111425 0.993339
vn 0.831303 -0.018123 0.555524
vn 0.831169 -0.017519 0.555743
vn 0.822057 0.082011 0.563468
vn 0.822139 0.080804 0.563524
vn 0.998823 -0.026559 0.040591
vn 0.998843 -0.025698 0.040638
vn 0.999274 -0.011766 0.036241
vn 0.998987 -0.026191 0.036588
vn 0.867675 -0.048754 -0.494735
vn 0.866871 -0.065380 -0.494226
vn 0.867886 -0.046247 -0.494605
vn 0.867798 -0.048402 -0.494555
vn 0.091474 -0.081625 -0.992456
vn 0.094153 -0.090516 -0.991434
vn 0.106831 -0.057647 -0.992605
vn 0.106806 -0.058669 -0.992548
vn -0.824587 -0.024646 -0.565198
vn -0.824592 -0.024405 -0.565201
vn -0.824740 -0.015434 -0.565302
vn -0.824741 -0.015315 -0.565303
vn -0.999766 0.019198 -0.009989
vn -0.999740 0.020487 -0.009971
vn -0.999426 0.031384 -0.012750
vn -0.999777 0.016083 -0.013686
vn -0.982107 0.025957 0.186525
vn -0.982078 0.026817 0.186558
vn -0.969945 0.072958 0.232130
vn -0.967817 0.058725 0.244708
vn -0.065783 0.032644 0.997300
vn -0.065806 0.030595 0.997363
vn -0.029577 -0.105876 0.993939
vn -0.029360 -0.106815 0.993845
vn 0.831238 0.057878 0.552896
vn 0.832518 0.041185 0.552465
vn 0.836727 -0.062826 0.544005
vn 0.836578 -0.066367 0.543813
vn 0.997662 0.017211 0.066136
vn 0.997317 -0.029404 0.067046
vn 0.998541 -0.004854 0.053776
vn 0.998435 -0.013420 0.054290
vn 0.865170 0.091528 -0.493056
vn 0.865749 0.083960 -0.493386
vn 0.863677 -0.108617 -0.492204
vn 0.862951 -0.116005 -0.491790
vn 0.100663 -0.012369 -0.994844
vn 0.100490 -0.014541 -0.994832
vn 0.082397 -0.109153 -0.990604
vn 0.082669 -0.103368 -0.991202
vn -0.824500 -0.028597 -0.565138
vn -0.824498 -0.028715 -0.565136
vn -0.824803 -0.009026 -0.565348
vn -0.824815 -0.007330 -0.565356
vn -0.999438 -0.033006 -0.005884
vn -0.998900 -0.046741 -0.003901
vn -0.996130 -0.086386 -0.016220
vn -0.996218 -0.085351 -0.016282
vn -0.962884 -0.049813 0.265277
vn -0.966027 -0.065659 0.249960
vn -0.967403 -0.110008 0.228101
vn -0.967049 -0.106552 0.231222
vn -0.065940 0.017906 0.997663
vn -0.065940 0.017906 0.997663
vn 0.795049 0.266313 0.544954
vn 0.795049 0.266313 0.544954
vn 0.983235 0.171450 0.062087
vn 0.983235 0.171450 0.062087
vn 0.868817 0.000000 -0.495133
vn 0.868817 0.000000 -0.495133
vn 0.088271 0.034552 -0.995497
vn 0.088271 0.034552 -0.995497
vn -0.824837 0.000000 -0.565371
vn -0.824837 0.000000 -0.565371
vn -0.989362 -0.145104 0.010363
vn -0.989362 -0.145105 0.010363
vn -0.973643 -0.193832 0.120202
vn -0.973643 -0.193832 0.120202
vn -0.999743 0.017542 -0.014358
vn -0.999743 0.017542 -0.014358
vn -0.824837 0.000000 -0.565371
vn -0.824837 0.000000 -0.565371
vn 0.108491 0.025583 -0.993768
vn 0.108491 0.025583 -0.993768
vn 0.868815 0.002925 -0.495129
vn 0.868815 0.002925 -0.495129
vn 0.999489 0.011812 0.029713
vn 0.999489 0.011812 0.029713
vn 0.824837 -0.000000 0.565371
vn 0.824837 -0.000000 0.565371
vn -0.074369 0.022380 0.996980
vn -0.074369 0.022380 0.996980
vn -0.868817 0.000570 0.495134
vn -0.868817 0.000570 0.495134
s off
g Pillar_F
usemtl initialShadingGroup
f 1/1/1 3/2/2 19/3/3 21/122/4
f 2/5/5 1/4/6 6/35/7 5/24/8
s 1
f 32/45/9 25/36/10 64/85/11 57/76/12
s off
f 4/6/13 6/7/14 22/23/15 24/8/16
s 2
f 26/37/17 27/38/18 62/83/19 63/84/20
s off
f 7/10/21 9/25/22 14/17/23 13/11/24
f 9/25/25 8/117/26 11/13/27 10/26/28
f 10/26/29 12/102/30 18/116/31 17/18/32
s 3
f 58/77/33 59/79/34 30/42/35 31/43/36
s off
f 15/27/37 14/17/38 17/18/39 16/113/40
s 4
f 60/80/41 61/81/42 28/39/43 29/41/44
s off
f 21/29/45 20/21/46 23/22/47 22/121/48
s 5
f 25/36/49 26/37/50 63/84/51 64/85/52
s off
f 9/25/53 10/26/54 17/18/55 14/17/56
s 6
f 59/79/57 60/80/58 29/41/59 30/42/60
s off
f 21/122/61 22/23/62 6/7/63 1/1/64
s 7
f 27/106/65 28/40/66 61/82/67 62/101/68
s 8
f 31/44/69 32/104/70 57/103/71 58/78/72
s off
f 1/4/73 2/5/74 3/33/75
f 4/112/76 5/24/77 6/35/78
f 7/34/79 8/117/80 9/25/81
f 10/26/82 11/13/83 12/96/84
f 13/11/85 14/17/86 15/27/87
f 16/113/88 17/18/89 18/116/90
f 19/16/91 20/21/92 21/29/93
f 22/121/94 23/22/95 24/20/96
s 5
f 33/46/97 34/47/98 49/66/99 50/67/100
s 2
f 34/47/101 35/48/102 56/75/103 49/66/104
s 7
f 35/98/105 36/50/106 55/74/107 56/105/108
s 4
f 54/72/109 55/73/110 36/49/111 37/51/112
s 6
f 53/71/113 54/72/114 37/51/115 38/52/116
s 3
f 52/69/117 53/71/118 38/52/119 39/53/120
s 8
f 39/54/121 40/108/122 51/68/123 52/70/124
s 1
f 40/55/125 33/46/126 50/67/127 51/107/128
s 5
f 41/56/129 42/57/130 65/86/131 66/87/132
s 2
f 42/57/133 43/110/134 72/95/135 65/86/136
s 7
f 43/58/137 44/60/138 71/94/139 72/97/140
s 4
f 70/92/141 71/93/142 44/59/143 45/61/144
s 6
f 69/91/145 70/92/146 45/61/147 46/62/148
s 3
f 68/89/149 69/91/150 46/62/151 47/63/152
s 8
f 47/64/153 48/100/154 67/88/155 68/90/156
s 1
f 48/65/157 41/56/158 66/87/159 67/99/160
s 5
f 2/5/161 5/24/162 42/57/130 41/56/129
s 2
f 5/24/163 4/112/164 43/110/134 42/57/133
s 7
f 4/9/165 24/30/166 44/60/138 43/58/137
s 4
f 45/61/144 44/59/143 24/20/167 23/22/168
s 6
f 46/62/148 45/61/147 23/22/169 20/21/170
s 3
f 47/63/152 46/62/151 20/21/171 19/16/172
s 8
f 19/32/173 3/109/174 48/100/154 47/64/153
s 1
f 3/33/175 2/5/176 41/56/158 48/65/157
s 5
f 50/67/100 49/66/99 26/37/50 25/36/49
s 1
f 51/107/128 50/67/127 25/36/10 32/45/9
s 8
f 52/70/124 51/68/123 32/104/70 31/44/69
s 3
f 31/43/36 30/42/35 53/71/118 52/69/117
s 6
f 30/42/60 29/41/59 54/72/114 53/71/113
s 4
f 29/41/44 28/39/43 55/73/110 54/72/109
s 7
f 56/105/108 55/74/107 28/40/66 27/106/65
s 2
f 49/66/104 56/75/103 27/38/18 26/37/17
s 8
f 58/78/72 57/103/71 7/120/177 13/119/178
s 3
f 13/15/179 15/114/180 59/79/34 58/77/33
s 6
f 15/114/181 16/28/182 60/80/58 59/79/57
s 4
f 16/28/183 18/19/184 61/81/42 60/80/41
s 7
f 62/101/68 61/82/67 18/31/185 12/115/186
s 2
f 63/84/20 62/83/19 12/14/187 11/118/188
s 5
f 64/85/52 63/84/51 11/118/189 8/12/190
s 1
f 57/76/12 64/85/11 8/12/191 7/111/192
s 5
f 66/87/132 65/86/131 34/47/98 33/46/97
s 1
f 67/99/160 66/87/159 33/46/126 40/55/125
s 8
f 68/90/156 67/88/155 40/108/122 39/54/121
s 3
f 39/53/120 38/52/119 69/91/150 68/89/149
s 6
f 38/52/116 37/51/115 70/92/146 69/91/145
s 4
f 37/51/112 36/49/111 71/93/142 70/92/141
s 7
f 72/97/140 71/94/139 36/50/106 35/98/105
s 2
f 65/86/136 72/95/135 35/48/102 34/47/101
