# This file uses centimeters as units for non-parametric coordinates.

mtllib stalagmite_B.mtl
g default
v 9.743195 0.223320 -7.035387
v 3.721619 0.223320 -11.410344
v -3.721527 0.223320 -11.410341
v -9.743103 0.223320 -7.035385
v -12.043182 0.223320 0.043443
v -9.743103 0.223320 7.122273
v -3.721527 0.223320 11.497226
v 3.721619 0.223320 11.497226
v 9.743195 0.223320 7.122272
v 12.043213 0.223320 0.043442
v 8.300476 11.226492 -3.724407
v 3.169098 11.228538 -7.451103
v -3.171875 11.231218 -7.449457
v -8.300171 11.233498 -3.721745
v -10.258636 11.234392 2.307544
v -8.300171 11.233498 8.336838
v -3.171875 11.231218 12.064547
v 3.169098 11.228538 12.066187
v 8.300476 11.226492 8.339493
v 10.260406 11.226492 2.307544
v 7.366882 17.027464 -2.354596
v 2.810089 17.029839 -5.665229
v -2.816895 17.032902 -5.662593
v -7.368958 17.035490 -2.350324
v -9.107178 17.036516 3.005433
v -7.368958 17.035490 8.361191
v -2.816895 17.032902 11.673451
v 2.810089 17.029839 11.676085
v 7.366882 17.027464 8.365454
v 9.107117 17.026575 3.005432
v 6.994904 26.838472 -3.545630
v 2.839691 26.841324 -6.572710
v -2.292633 26.844769 -6.573205
v -6.442535 26.846909 -3.550262
v -8.027100 26.847715 1.341377
v -6.442535 26.846909 6.235326
v -2.292633 26.844769 9.264121
v 2.839691 26.841324 9.270910
v 6.994904 26.838472 6.249490
v 8.582825 26.837479 1.351929
v 7.424103 35.521862 -4.365601
v 3.752014 35.519497 -7.029385
v -0.739105 35.514690 -7.005625
v -4.382477 35.493496 -4.331341
v -5.758392 35.484653 -0.027548
v -4.359589 35.491623 4.276242
v -0.688293 35.510666 6.914715
v 3.769653 35.518112 6.899151
v 7.394592 35.524166 4.246911
v 8.802032 35.527985 -0.047244
v 7.783081 42.111031 -5.450412
v 4.454712 42.106445 -7.891882
v 0.332458 42.102165 -7.898489
v -3.011017 42.103447 -5.453967
v -4.287231 42.108028 -1.486087
v -3.001953 42.112144 2.475825
v 0.349609 42.118740 4.908568
v 4.470886 42.122139 4.887617
v 7.794983 42.122597 2.433356
v 9.054993 42.114750 -1.511094
v 7.771057 45.969009 -6.480119
v 4.535034 45.969002 -8.834386
v 0.539520 45.964706 -8.835373
v -2.696594 45.962059 -6.483338
v -3.933472 45.962059 -2.676548
v -2.696594 45.962059 1.130238
v 0.539520 45.964706 3.482277
v 4.535034 45.969002 3.481287
v 7.771057 45.969009 1.127017
v 9.011475 45.968582 -2.676549
v 4.826080 51.202538 -4.668446
v 1.959778 51.223522 -6.777068
v -1.522522 51.233932 -6.770227
v -4.523102 51.268044 -4.745027
v -5.632568 51.275284 -1.436131
v -4.523071 51.268044 1.885313
v -1.522522 51.233932 3.889001
v 1.959778 51.223522 3.861139
v 4.826080 51.202538 1.880141
v 5.913391 51.194359 -1.381759
v 0.203217 56.589413 -2.408460
v -1.836426 56.589413 -3.899668
v -4.374695 56.595448 -3.897618
v -6.448761 56.604248 -2.409456
v -7.245514 56.604248 -0.013017
v -6.448761 56.604248 2.383422
v -4.374695 56.595448 3.851013
v -1.836426 56.589413 3.844571
v 0.203186 56.589413 2.377743
v 0.983856 56.585083 -0.005053
v -0.565887 61.466679 -1.709795
v -2.020325 61.466679 -2.766504
v -3.818115 61.466679 -2.766503
v -5.272552 61.466679 -1.709794
v -5.828094 61.466679 -0.000000
v -5.272552 61.466679 1.709794
v -3.818115 61.466679 2.766503
v -2.020325 61.466679 2.766503
v -0.565887 61.466679 1.709794
v -0.010345 61.466679 -0.000000
v -3.263794 67.235519 -0.495839
v -3.700562 67.235519 -0.802286
v -4.232147 67.235519 -0.802286
v -4.657562 67.235519 -0.495839
v -4.823120 67.235519 -0.000000
v -4.657562 67.235519 0.495838
v -4.232147 67.235519 0.802285
v -3.700562 67.235519 0.802285
v -3.263794 67.235519 0.495838
v -3.091003 67.235519 -0.000000
v -3.298035 69.420227 -0.000000
vt 0.770951 0.682616
vt 0.900381 0.631890
vt 0.906107 0.728620
vt 0.853928 0.811871
vt 0.762780 0.850500
vt 0.664915 0.828217
vt 0.598732 0.750112
vt 0.594220 0.647836
vt 0.650884 0.564991
vt 0.744008 0.531401
vt 0.838857 0.557028
vt 0.498803 0.048395
vt 0.553915 0.119292
vt 0.498803 0.119292
vt 0.100324 0.048395
vt 0.100324 0.119292
vt 0.158274 0.048395
vt 0.158274 0.119292
vt 0.214285 0.048395
vt 0.214285 0.119292
vt 0.263208 0.048395
vt 0.263208 0.119292
vt 0.314762 0.048395
vt 0.314762 0.119292
vt 0.362724 0.048395
vt 0.362724 0.119292
vt 0.405542 0.048395
vt 0.405542 0.119292
vt 0.448809 0.048395
vt 0.448809 0.119292
vt 0.553915 0.156658
vt 0.498803 0.156658
vt 0.100324 0.156658
vt 0.158274 0.156658
vt 0.214285 0.156658
vt 0.263208 0.156658
vt 0.314762 0.156658
vt 0.362724 0.156658
vt 0.405542 0.156658
vt 0.448809 0.156658
vt 0.553915 0.237514
vt 0.498803 0.237514
vt 0.100324 0.237514
vt 0.158274 0.237514
vt 0.214285 0.237514
vt 0.263208 0.237514
vt 0.314762 0.237514
vt 0.362724 0.237514
vt 0.405542 0.237514
vt 0.508521 0.315254
vt 0.561004 0.315254
vt 0.448809 0.237514
vt 0.565756 0.383748
vt 0.516296 0.383748
vt 0.096989 0.315254
vt 0.098264 0.383748
vt 0.152727 0.315254
vt 0.151311 0.383748
vt 0.226786 0.315254
vt 0.240630 0.383748
vt 0.271838 0.315254
vt 0.281637 0.383748
vt 0.318613 0.315254
vt 0.323530 0.383748
vt 0.364682 0.315254
vt 0.367317 0.383748
vt 0.415463 0.315254
vt 0.424601 0.383748
vt 0.459357 0.315254
vt 0.468501 0.383748
vt 0.565756 0.433195
vt 0.516296 0.433195
vt 0.098264 0.433195
vt 0.151311 0.433195
vt 0.240630 0.433195
vt 0.281637 0.433195
vt 0.323530 0.433195
vt 0.367317 0.433195
vt 0.424601 0.433195
vt 0.468501 0.433195
vt 0.070142 0.505050
vt 0.123189 0.505050
vt 0.212507 0.505050
vt 0.441105 0.592002
vt 0.490565 0.592022
vt 0.034204 0.591913
vt 0.055496 0.762641
vt 0.085817 0.592035
vt 0.253514 0.505050
vt 0.105905 0.747842
vt 0.155141 0.592055
vt 0.155373 0.738599
vt 0.200270 0.592075
vt 0.203830 0.729995
vt 0.246136 0.591993
vt 0.250677 0.723245
vt 0.292988 0.591943
vt 0.296628 0.718506
vt 0.346200 0.591963
vt 0.342310 0.716668
vt 0.392564 0.591932
vt 0.387831 0.718758
vt 0.350323 0.936614
vt 0.193969 0.951088
vt 0.211244 0.943752
vt 0.229694 0.938132
vt 0.248952 0.934037
vt 0.268943 0.930905
vt 0.295408 0.505050
vt 0.339195 0.505050
vt 0.396479 0.505050
vt 0.440379 0.505050
vt 0.289758 0.929153
vt 0.310855 0.929317
vt 0.331169 0.931861
vt 0.488174 0.505050
vt 0.553915 0.048395
vt 0.607090 0.048395
vt 0.607090 0.119292
vt 0.607090 0.156658
vt 0.607090 0.237514
vt 0.607209 0.315254
vt 0.535191 0.592112
vt 0.605120 0.383748
vt 0.605120 0.433195
vt 0.537634 0.505050
vt 0.576998 0.505050
vt 0.479191 0.741936
vt 0.367489 0.945239
vt 0.524768 0.764810
vt 0.381150 0.957766
vt 0.433592 0.727156
vn 0.758224 0.277032 -0.590212
vn 0.279499 0.337426 -0.898902
vn 0.297325 0.325377 -0.897623
vn 0.788513 0.265962 -0.554538
vn -0.279576 0.337399 -0.898888
vn -0.297558 0.325324 -0.897565
vn -0.758280 0.276982 -0.590164
vn -0.788619 0.265839 -0.554446
vn -0.984996 0.167857 -0.040082
vn -0.985955 0.165893 0.019317
vn -0.826910 0.046530 0.560405
vn -0.797792 0.064366 0.599487
vn -0.320722 -0.032776 0.946606
vn -0.303260 0.002350 0.952905
vn 0.320513 -0.032840 0.946675
vn 0.302867 0.002327 0.953030
vn 0.826874 0.046444 0.560466
vn 0.797669 0.064370 0.599651
vn 0.984996 0.167853 -0.040114
vn 0.985939 0.165988 0.019323
vn 0.313654 0.073822 -0.946663
vn 0.818372 0.085873 -0.568237
vn -0.319559 0.084849 -0.943760
vn -0.818451 0.113857 -0.563183
vn -0.988754 0.146795 0.028573
vn -0.784851 0.170483 0.595772
vn -0.299254 0.178296 0.937367
vn 0.292934 0.169101 0.941060
vn 0.785519 0.145498 0.601491
vn 0.993067 0.114046 0.028485
vn 0.298471 -0.084886 -0.950637
vn 0.802635 -0.066099 -0.592797
vn -0.317391 -0.033662 -0.947697
vn -0.809067 0.064765 -0.584137
vn -0.985270 0.170944 -0.004604
vn -0.789725 0.246509 0.561754
vn -0.307867 0.267424 0.913073
vn 0.295133 0.225994 0.928345
vn 0.801444 0.131706 0.583387
vn 0.999833 0.017882 -0.003645
vn 0.312135 -0.113407 -0.943245
vn 0.806614 -0.112961 -0.580185
vn -0.306323 -0.027709 -0.951524
vn -0.803755 0.111347 -0.584448
vn -0.970603 0.240685 0.000763
vn -0.766991 0.311666 0.560882
vn -0.288168 0.307312 0.906928
vn 0.309502 0.230368 0.922572
vn 0.808713 0.102282 0.579242
vn 0.999548 -0.030078 0.000100
vn 0.315825 -0.185111 -0.930585
vn 0.803357 -0.143027 -0.578067
vn -0.293939 -0.130410 -0.946886
vn -0.803036 0.008944 -0.595863
vn -0.984321 0.176333 -0.004383
vn -0.771118 0.295415 0.564010
vn -0.281110 0.328080 0.901854
vn 0.315717 0.270466 0.909490
vn 0.811006 0.139139 0.568251
vn 0.999779 -0.019936 -0.006676
vn 0.334484 0.187191 -0.923623
vn 0.771415 0.266086 -0.578029
vn -0.247553 0.066309 -0.966603
vn -0.759958 -0.063146 -0.646897
vn -0.988969 -0.140270 -0.047582
vn -0.808007 -0.085791 0.582893
vn -0.277143 0.067182 0.958477
vn 0.354773 0.214027 0.910126
vn 0.809137 0.290726 0.510663
vn 0.951998 0.302027 -0.049807
vn 0.269096 0.523647 -0.808320
vn 0.643645 0.610238 -0.461878
vn -0.289086 0.287633 -0.913070
vn -0.799829 -0.051590 -0.598007
vn -0.955184 -0.296010 0.001583
vn -0.753091 -0.331430 0.568338
vn -0.290978 -0.165592 0.942290
vn 0.303542 0.148593 0.941160
vn 0.722803 0.434767 0.537154
vn 0.812275 0.583255 0.004932
vn 0.236105 0.467568 -0.851842
vn 0.661674 0.563311 -0.494842
vn -0.352130 0.267104 -0.897028
vn -0.837343 0.054897 -0.543915
vn -0.996564 -0.076365 0.032066
vn -0.807901 -0.101135 0.580575
vn -0.354926 -0.021805 0.934640
vn 0.236307 0.174124 0.955950
vn 0.704453 0.407522 0.581095
vn 0.836581 0.547550 0.017926
vn 0.310558 0.286697 -0.906288
vn 0.776365 0.301500 -0.553494
vn -0.281274 0.265253 -0.922239
vn -0.775475 0.247234 -0.580960
vn -0.970707 0.240268 0.000299
vn -0.775103 0.244875 0.582453
vn -0.279390 0.260161 0.924261
vn 0.309602 0.281526 0.908234
vn 0.775418 0.299472 0.555917
vn 0.951882 0.306466 0.000120
vn 0.257158 0.371984 -0.891907
vn 0.716948 0.428897 -0.549575
vn -0.323315 0.296146 -0.898758
vn -0.797740 0.231062 -0.556975
vn -0.978597 0.205785 0.000000
vn -0.797740 0.231062 0.556975
vn -0.323315 0.296146 0.898757
vn 0.257159 0.371984 0.891907
vn 0.716948 0.428897 0.549575
vn 0.892822 0.450409 0.000000
vn 0.134615 0.990898 -0.000000
s 1
g stalagmite_B
usemtl initialShadingGroup
f 1/12/1 2/117/2 12/13/3 11/14/4
f 2/117/2 3/118/5 13/119/6 12/13/3
f 3/15/5 4/17/7 14/18/8 13/16/6
f 4/17/7 5/19/9 15/20/10 14/18/8
f 5/19/9 6/21/11 16/22/12 15/20/10
f 6/21/11 7/23/13 17/24/14 16/22/12
f 7/23/13 8/25/15 18/26/16 17/24/14
f 8/25/15 9/27/17 19/28/18 18/26/16
f 9/27/17 10/29/19 20/30/20 19/28/18
f 10/29/19 1/12/1 11/14/4 20/30/20
f 11/14/4 12/13/3 22/31/21 21/32/22
f 12/13/3 13/119/6 23/120/23 22/31/21
f 13/16/6 14/18/8 24/34/24 23/33/23
f 14/18/8 15/20/10 25/35/25 24/34/24
f 15/20/10 16/22/12 26/36/26 25/35/25
f 16/22/12 17/24/14 27/37/27 26/36/26
f 17/24/14 18/26/16 28/38/28 27/37/27
f 18/26/16 19/28/18 29/39/29 28/38/28
f 19/28/18 20/30/20 30/40/30 29/39/29
f 20/30/20 11/14/4 21/32/22 30/40/30
f 21/32/22 22/31/21 32/41/31 31/42/32
f 22/31/21 23/120/23 33/121/33 32/41/31
f 23/33/23 24/34/24 34/44/34 33/43/33
f 24/34/24 25/35/25 35/45/35 34/44/34
f 25/35/25 26/36/26 36/46/36 35/45/35
f 26/36/26 27/37/27 37/47/37 36/46/36
f 27/37/27 28/38/28 38/48/38 37/47/37
f 28/38/28 29/39/29 39/49/39 38/48/38
f 29/39/29 30/40/30 40/52/40 39/49/39
f 30/40/30 21/32/22 31/42/32 40/52/40
f 31/42/32 32/41/31 42/51/41 41/50/42
f 32/41/31 33/121/33 43/122/43 42/51/41
f 33/43/33 34/44/34 44/57/44 43/55/43
f 34/44/34 35/45/35 45/59/45 44/57/44
f 35/45/35 36/46/36 46/61/46 45/59/45
f 36/46/36 37/47/37 47/63/47 46/61/46
f 37/47/37 38/48/38 48/65/48 47/63/47
f 38/48/38 39/49/39 49/67/49 48/65/48
f 39/49/39 40/52/40 50/69/50 49/67/49
f 40/52/40 31/42/32 41/50/42 50/69/50
f 41/50/42 42/51/41 52/53/51 51/54/52
f 42/51/41 43/122/43 53/124/53 52/53/51
f 43/55/43 44/57/44 54/58/54 53/56/53
f 44/57/44 45/59/45 55/60/55 54/58/54
f 45/59/45 46/61/46 56/62/56 55/60/55
f 46/61/46 47/63/47 57/64/57 56/62/56
f 47/63/47 48/65/48 58/66/58 57/64/57
f 48/65/48 49/67/49 59/68/59 58/66/58
f 49/67/49 50/69/50 60/70/60 59/68/59
f 50/69/50 41/50/42 51/54/52 60/70/60
f 51/54/52 52/53/51 62/71/61 61/72/62
f 52/53/51 53/124/53 63/125/63 62/71/61
f 53/56/53 54/58/54 64/74/64 63/73/63
f 54/58/54 55/60/55 65/75/65 64/74/64
f 55/60/55 56/62/56 66/76/66 65/75/65
f 56/62/56 57/64/57 67/77/67 66/76/66
f 57/64/57 58/66/58 68/78/68 67/77/67
f 58/66/58 59/68/59 69/79/69 68/78/68
f 59/68/59 60/70/60 70/80/70 69/79/69
f 60/70/60 51/54/52 61/72/62 70/80/70
f 61/72/62 62/71/61 72/126/71 71/116/72
f 62/71/61 63/125/63 73/127/73 72/126/71
f 63/73/63 64/74/64 74/82/74 73/81/73
f 64/74/64 65/75/65 75/83/75 74/82/74
f 65/75/65 66/76/66 76/89/76 75/83/75
f 66/76/66 67/77/67 77/109/77 76/89/76
f 67/77/67 68/78/68 78/110/78 77/109/77
f 68/78/68 69/79/69 79/111/79 78/110/78
f 69/79/69 70/80/70 80/112/80 79/111/79
f 70/80/70 61/72/62 71/116/72 80/112/80
f 71/116/72 72/126/71 82/85/81 81/84/82
f 72/126/71 73/127/73 83/123/83 82/85/81
f 73/81/73 74/82/74 84/88/84 83/86/83
f 74/82/74 75/83/75 85/91/85 84/88/84
f 75/83/75 76/89/76 86/93/86 85/91/85
f 76/89/76 77/109/77 87/95/87 86/93/86
f 77/109/77 78/110/78 88/97/88 87/95/87
f 78/110/78 79/111/79 89/99/89 88/97/88
f 79/111/79 80/112/80 90/101/90 89/99/89
f 80/112/80 71/116/72 81/84/82 90/101/90
f 81/84/82 82/85/81 92/128/91 91/132/92
f 82/85/81 83/123/83 93/130/93 92/128/91
f 83/86/83 84/88/84 94/90/94 93/87/93
f 84/88/84 85/91/85 95/92/95 94/90/94
f 85/91/85 86/93/86 96/94/96 95/92/95
f 86/93/86 87/95/87 97/96/97 96/94/96
f 87/95/87 88/97/88 98/98/98 97/96/97
f 88/97/88 89/99/89 99/100/99 98/98/98
f 89/99/89 90/101/90 100/102/100 99/100/99
f 90/101/90 81/84/82 91/132/92 100/102/100
f 91/132/92 92/128/91 102/129/101 101/103/102
f 92/128/91 93/130/93 103/131/103 102/129/101
f 93/87/93 94/90/94 104/105/104 103/104/103
f 94/90/94 95/92/95 105/106/105 104/105/104
f 95/92/95 96/94/96 106/107/106 105/106/105
f 96/94/96 97/96/97 107/108/107 106/107/106
f 97/96/97 98/98/98 108/113/108 107/108/107
f 98/98/98 99/100/99 109/114/109 108/113/108
f 99/100/99 100/102/100 110/115/110 109/114/109
f 100/102/100 91/132/92 101/103/102 110/115/110
f 101/3/102 102/4/101 111/1/111
f 102/4/101 103/5/103 111/1/111
f 103/5/103 104/6/104 111/1/111
f 104/6/104 105/7/105 111/1/111
f 105/7/105 106/8/106 111/1/111
f 106/8/106 107/9/107 111/1/111
f 107/9/107 108/10/108 111/1/111
f 108/10/108 109/11/109 111/1/111
f 109/11/109 110/2/110 111/1/111
f 110/2/110 101/3/102 111/1/111
