# This file uses centimeters as units for non-parametric coordinates.

mtllib stalagmite_C.mtl
g default
v 16.596008 0.092148 -5.799933
v 8.240540 0.092148 -11.208565
v -2.087555 0.092148 -11.208562
v -10.442963 0.092148 -5.799932
v -13.634613 0.092148 2.951414
v -10.442963 0.092148 11.702762
v -2.087555 0.092148 17.111391
v 8.240540 0.092148 17.111391
v 16.596008 0.092148 11.702760
v 19.787476 0.092148 2.951413
v 11.033264 12.923742 -4.661592
v 4.710510 12.926153 -9.256431
v -3.100189 12.929317 -9.250954
v -9.419281 12.932001 -4.653434
v -11.831970 12.933057 2.778919
v -9.417999 12.932001 10.210348
v -3.098877 12.929317 14.800290
v 4.708740 12.926153 14.794165
v 11.030518 12.923742 10.202956
v 13.447540 12.923742 2.770817
v 8.661987 19.688751 -4.895872
v 3.788452 19.691521 -8.361620
v -2.208832 19.695095 -8.323687
v -7.023956 19.698111 -4.802992
v -8.807648 19.699308 0.840797
v -6.897247 19.698111 6.437860
v -2.041382 19.695095 9.864244
v 3.911285 19.691521 9.833002
v 8.715424 19.688751 6.351353
v 10.537537 19.687714 0.730919
v 6.588837 31.130125 -7.074006
v 3.420929 31.133450 -9.371066
v -0.145264 31.137466 -9.841505
v -6.707977 31.139959 -7.062272
v -8.143982 31.140900 -2.577693
v -6.683014 31.139959 1.915054
v -2.855591 31.137466 4.673540
v 1.930847 31.133450 4.629258
v 5.756775 31.130125 1.852734
v 7.167511 31.128963 -2.615136
v 8.210236 41.252617 -5.784251
v 4.560486 41.247562 -8.428581
v 0.053497 41.241467 -8.408041
v -3.595825 41.219357 -5.742093
v -4.990662 41.211208 -1.434705
v -3.595825 41.219357 2.865486
v 0.053497 41.241467 5.512295
v 4.560486 41.247562 5.499953
v 8.210236 41.252617 2.828260
v 9.603973 41.257889 -1.482692
v 7.931641 50.852180 -3.984112
v 4.593964 50.839462 -6.431976
v 0.448090 50.821877 -6.448883
v -2.916809 50.809689 -4.010250
v -4.205078 50.803604 -0.045356
v -2.916779 50.809689 3.919538
v 0.448090 50.821877 6.358170
v 4.593964 50.839462 6.347518
v 7.931641 50.852180 3.899654
v 9.204163 50.857712 -0.041691
v 8.209198 56.507153 -1.143048
v 5.901062 56.507141 -2.822251
v 3.051208 56.501328 -2.822956
v 0.743073 56.497749 -1.145342
v -0.139160 56.497749 1.569882
v 0.743073 56.497749 4.285106
v 3.051208 56.501328 5.962718
v 5.901093 56.507141 5.962012
v 8.209198 56.507153 4.282810
v 9.093811 56.506569 1.569882
v 9.112122 63.587608 -2.010206
v 7.136078 63.615997 -3.469219
v 4.671021 63.630089 -3.476181
v 2.660828 63.676235 -2.039896
v 1.889069 63.686028 0.324678
v 2.660828 63.676235 2.689251
v 4.671021 63.630089 4.126608
v 7.136078 63.615997 4.118573
v 9.112122 63.587608 2.660632
v 9.862518 63.576546 0.325214
v 8.715485 70.875534 -2.372923
v 7.263489 70.875534 -3.432472
v 5.469299 70.883690 -3.441111
v 4.016083 70.895599 -2.393680
v 3.460693 70.895599 -0.686206
v 4.016083 70.895599 1.024883
v 5.469299 70.883690 2.085669
v 7.263489 70.875534 2.091174
v 8.715454 70.875534 1.040878
v 9.268158 70.869675 -0.663352
v 7.723602 77.474014 -2.574155
v 6.686249 77.474014 -3.327863
v 5.403961 77.474014 -3.327862
v 4.366547 77.474014 -2.574155
v 3.970306 77.474014 -1.354630
v 4.366547 77.474014 -0.135106
v 5.403961 77.474014 0.618605
v 6.686249 77.474014 0.618605
v 7.723602 77.474014 -0.135105
v 8.119904 77.474014 -1.354630
v 6.095398 85.278702 -1.708290
v 5.794525 85.278702 -1.926866
v 5.422607 85.278702 -1.926866
v 5.121857 85.278702 -1.708290
v 5.006897 85.278702 -1.354630
v 5.121857 85.278702 -1.000968
v 5.422607 85.278702 -0.782393
v 5.794525 85.278702 -0.782393
v 6.095398 85.278702 -1.000968
v 6.210327 85.278702 -1.354630
v 5.607269 88.234383 -1.354630
vt 0.698571 0.071590
vt 0.729253 0.247017
vt 0.657606 0.213507
vt 0.016703 0.254605
vt 0.119163 0.341596
vt 0.094228 0.190159
vt 0.180077 0.292940
vt 0.168621 0.136479
vt 0.241058 0.250121
vt 0.248864 0.091914
vt 0.302803 0.214054
vt 0.340259 0.056816
vt 0.367635 0.186723
vt 0.437848 0.035014
vt 0.437297 0.172385
vt 0.531731 0.027927
vt 0.510355 0.171865
vt 0.617992 0.038572
vt 0.584671 0.186833
vt 0.701017 0.311765
vt 0.640690 0.289338
vt 0.162830 0.390383
vt 0.215748 0.355374
vt 0.271513 0.322160
vt 0.329842 0.293605
vt 0.391020 0.272564
vt 0.453689 0.259008
vt 0.517747 0.258414
vt 0.580099 0.269577
vt 0.671960 0.420994
vt 0.629806 0.412401
vt 0.198955 0.497172
vt 0.260247 0.457698
vt 0.303787 0.435425
vt 0.351712 0.417565
vt 0.404912 0.405676
vt 0.463233 0.399937
vt 0.521780 0.398740
vt 0.578471 0.404154
vt 0.656793 0.517375
vt 0.612843 0.513577
vt 0.258378 0.574793
vt 0.298801 0.549791
vt 0.343518 0.529708
vt 0.390501 0.517097
vt 0.437320 0.512113
vt 0.482644 0.511845
vt 0.526700 0.513636
vt 0.569791 0.513398
vt 0.643578 0.615367
vt 0.603436 0.613575
vt 0.306370 0.657921
vt 0.339473 0.633487
vt 0.374621 0.618696
vt 0.410502 0.612081
vt 0.446911 0.611106
vt 0.484596 0.612602
vt 0.580507 0.675835
vt 0.610981 0.679103
vt 0.523881 0.613820
vt 0.597566 0.754609
vt 0.573518 0.751000
vt 0.357883 0.714422
vt 0.385678 0.784567
vt 0.381293 0.696043
vt 0.406851 0.770534
vt 0.408032 0.681583
vt 0.428870 0.757881
vt 0.436422 0.672653
vt 0.452453 0.748522
vt 0.464865 0.669224
vt 0.477195 0.743026
vt 0.493013 0.669641
vt 0.501991 0.741820
vt 0.521140 0.671654
vt 0.526264 0.743432
vt 0.550312 0.673807
vt 0.549993 0.746860
vt 0.581341 0.828277
vt 0.563400 0.824062
vt 0.421667 0.850680
vt 0.437666 0.841261
vt 0.454216 0.832456
vt 0.471589 0.825220
vt 0.489699 0.820232
vt 0.508344 0.817872
vt 0.526938 0.818158
vt 0.545289 0.820414
vt 0.566330 0.894327
vt 0.553810 0.890338
vt 0.454155 0.910880
vt 0.465507 0.904225
vt 0.477155 0.898272
vt 0.489181 0.893205
vt 0.514566 0.887023
vt 0.527759 0.886451
vt 0.540917 0.887614
vt 0.537678 0.971079
vt 0.534033 0.969801
vt 0.504912 0.976243
vt 0.828941 0.800299
vt 0.929900 0.805658
vt 0.907504 0.863887
vt 0.855154 0.897834
vt 0.792849 0.894529
vt 0.744392 0.855233
vt 0.728283 0.794955
vt 0.750683 0.736721
vt 0.803028 0.702777
vt 0.865333 0.706087
vt 0.913795 0.745385
vt 0.522540 0.969062
vt 0.526380 0.968777
vt 0.563652 0.614177
vt 0.530237 0.969024
vt 0.501663 0.889344
vt 0.508157 0.974192
vt 0.511570 0.972436
vt 0.515116 0.970968
vt 0.518775 0.969820
vt 0.778430 0.118366
vt 0.863391 0.171956
vt 0.799668 0.284260
vt 0.760603 0.335281
vt 0.708394 0.429051
vt 0.701620 0.525277
vt 0.684695 0.624581
vt 0.640366 0.684521
vt 0.599329 0.832937
vt 0.621970 0.757745
vt 0.578482 0.899283
vt 0.541111 0.972784
vn 0.755566 0.373572 -0.538111
vn 0.321496 0.238442 -0.916398
vn 0.268204 0.205712 -0.941142
vn 0.742889 0.334962 -0.579583
vn -0.267764 0.133093 -0.954248
vn -0.313560 0.140390 -0.939133
vn -0.783130 0.113040 -0.611497
vn -0.795473 0.159784 -0.584545
vn -0.991914 0.126881 0.002861
vn -0.976270 0.216085 0.014324
vn -0.778818 0.129433 0.613750
vn -0.764861 0.257575 0.590459
vn -0.264815 0.159139 0.951077
vn -0.294386 0.293160 0.909612
vn 0.318290 0.262294 0.910985
vn 0.249213 0.351264 0.902500
vn 0.749028 0.385909 0.538546
vn 0.703788 0.418575 0.574001
vn 0.900918 0.433980 0.002716
vn 0.903961 0.427449 0.011940
vn 0.317457 0.029983 -0.947799
vn 0.816875 0.161949 -0.553613
vn -0.299715 0.009081 -0.953986
vn -0.777208 0.072755 -0.625024
vn -0.972278 0.233263 0.016231
vn -0.728881 0.398544 0.556682
vn -0.248785 0.497298 0.831144
vn 0.274361 0.516639 0.811055
vn 0.718564 0.461867 0.519947
vn 0.942174 0.334433 0.021517
vn 0.319041 -0.020470 -0.947520
vn 0.809944 -0.004785 -0.586487
vn -0.248683 0.013637 -0.968489
vn -0.734165 0.074509 -0.674870
vn -0.987345 0.154215 -0.036975
vn -0.816011 0.216767 0.535853
vn -0.332952 0.240796 0.911680
vn 0.286602 0.211788 0.934348
vn 0.808388 0.140150 0.571722
vn 0.998364 0.055779 0.012550
vn 0.328170 0.124722 -0.936349
vn 0.832230 0.014662 -0.554236
vn -0.279412 0.183108 -0.942550
vn -0.738505 0.222972 -0.636313
vn -0.978861 0.204523 -0.001258
vn -0.797291 0.094253 0.596191
vn -0.281978 -0.038425 0.958651
vn 0.332908 -0.128473 0.934166
vn 0.811319 -0.148772 0.565357
vn 0.995225 -0.095515 0.020110
vn 0.283520 0.291793 -0.913495
vn 0.792922 0.176345 -0.583247
vn -0.305134 0.344122 -0.887960
vn -0.771069 0.330805 -0.544077
vn -0.965521 0.260291 0.004328
vn -0.804005 0.148806 0.575702
vn -0.322730 0.027241 0.946099
vn 0.294354 -0.055754 0.954069
vn 0.802032 -0.055512 0.594696
vn 0.999322 0.036760 0.002202
vn 0.323983 0.198419 -0.925022
vn 0.832582 0.029833 -0.553098
vn -0.290377 0.367610 -0.883484
vn -0.731661 0.459266 -0.503734
vn -0.887857 0.458888 0.033643
vn -0.727475 0.375949 0.573970
vn -0.274310 0.235331 0.932402
vn 0.310951 0.087882 0.946354
vn 0.793717 -0.019189 0.607985
vn 0.997871 -0.048283 0.043846
vn 0.323055 -0.078102 -0.943152
vn 0.809516 -0.087203 -0.580585
vn -0.290085 0.002113 -0.956999
vn -0.792548 0.128147 -0.596192
vn -0.969289 0.245855 -0.005848
vn -0.765875 0.307182 0.564867
vn -0.280797 0.293650 0.913741
vn 0.320261 0.211243 0.923477
vn 0.815786 0.088717 0.571509
vn 0.999671 -0.024699 -0.006920
vn 0.320220 0.016402 -0.947201
vn 0.809806 0.050272 -0.584540
vn -0.292211 0.027434 -0.955960
vn -0.796647 0.082274 -0.598819
vn -0.987009 0.160461 -0.008150
vn -0.786494 0.228054 0.573950
vn -0.289031 0.258547 0.921745
vn 0.313003 0.243158 0.918098
vn 0.803164 0.188412 0.565180
vn 0.993326 0.115076 -0.007799
vn 0.303598 0.103078 -0.947208
vn 0.793898 0.149228 -0.589455
vn -0.304316 0.073461 -0.949734
vn -0.801252 0.070811 -0.594122
vn -0.995233 0.096772 -0.012085
vn -0.806989 0.142670 0.573074
vn -0.308642 0.190745 0.931856
vn 0.302761 0.221544 0.926960
vn 0.793671 0.222998 0.566002
vn 0.980724 0.195026 -0.012067
vn 0.294164 0.201164 -0.934345
vn 0.784923 0.225644 -0.577044
vn -0.313136 0.170763 -0.934230
vn -0.803680 0.146121 -0.576843
vn -0.990610 0.136717 0.000000
vn -0.803680 0.146121 0.576843
vn -0.313136 0.170763 0.934230
vn 0.294164 0.201164 0.934345
vn 0.784924 0.225644 0.577044
vn 0.972005 0.234959 -0.000000
vn -0.000076 1.000000 0.000002
s 1
g stalagmite_C
usemtl initialShadingGroup
f 1/1/1 2/121/2 12/2/3 11/3/4
f 2/121/2 3/122/5 13/123/6 12/2/3
f 3/4/5 4/6/7 14/7/8 13/5/6
f 4/6/7 5/8/9 15/9/10 14/7/8
f 5/8/9 6/10/11 16/11/12 15/9/10
f 6/10/11 7/12/13 17/13/14 16/11/12
f 7/12/13 8/14/15 18/15/16 17/13/14
f 8/14/15 9/16/17 19/17/18 18/15/16
f 9/16/17 10/18/19 20/19/20 19/17/18
f 10/18/19 1/1/1 11/3/4 20/19/20
f 11/3/4 12/2/3 22/20/21 21/21/22
f 12/2/3 13/123/6 23/124/23 22/20/21
f 13/5/6 14/7/8 24/23/24 23/22/23
f 14/7/8 15/9/10 25/24/25 24/23/24
f 15/9/10 16/11/12 26/25/26 25/24/25
f 16/11/12 17/13/14 27/26/27 26/25/26
f 17/13/14 18/15/16 28/27/28 27/26/27
f 18/15/16 19/17/18 29/28/29 28/27/28
f 19/17/18 20/19/20 30/29/30 29/28/29
f 20/19/20 11/3/4 21/21/22 30/29/30
f 21/21/22 22/20/21 32/30/31 31/31/32
f 22/20/21 23/124/23 33/125/33 32/30/31
f 23/22/23 24/23/24 34/33/34 33/32/33
f 24/23/24 25/24/25 35/34/35 34/33/34
f 25/24/25 26/25/26 36/35/36 35/34/35
f 26/25/26 27/26/27 37/36/37 36/35/36
f 27/26/27 28/27/28 38/37/38 37/36/37
f 28/27/28 29/28/29 39/38/39 38/37/38
f 29/28/29 30/29/30 40/39/40 39/38/39
f 30/29/30 21/21/22 31/31/32 40/39/40
f 31/31/32 32/30/31 42/40/41 41/41/42
f 32/30/31 33/125/33 43/126/43 42/40/41
f 33/32/33 34/33/34 44/43/44 43/42/43
f 34/33/34 35/34/35 45/44/45 44/43/44
f 35/34/35 36/35/36 46/45/46 45/44/45
f 36/35/36 37/36/37 47/46/47 46/45/46
f 37/36/37 38/37/38 48/47/48 47/46/47
f 38/37/38 39/38/39 49/48/49 48/47/48
f 39/38/39 40/39/40 50/49/50 49/48/49
f 40/39/40 31/31/32 41/41/42 50/49/50
f 41/41/42 42/40/41 52/50/51 51/51/52
f 42/40/41 43/126/43 53/127/53 52/50/51
f 43/42/43 44/43/44 54/53/54 53/52/53
f 44/43/44 45/44/45 55/54/55 54/53/54
f 45/44/45 46/45/46 56/55/56 55/54/55
f 46/45/46 47/46/47 57/56/57 56/55/56
f 47/46/47 48/47/48 58/57/58 57/56/57
f 48/47/48 49/48/49 59/60/59 58/57/58
f 49/48/49 50/49/50 60/114/60 59/60/59
f 50/49/50 41/41/42 51/51/52 60/114/60
f 51/51/52 52/50/51 62/59/61 61/58/62
f 52/50/51 53/127/53 63/128/63 62/59/61
f 53/52/53 54/53/54 64/65/64 63/63/63
f 54/53/54 55/54/55 65/67/65 64/65/64
f 55/54/55 56/55/56 66/69/66 65/67/65
f 56/55/56 57/56/57 67/71/67 66/69/66
f 57/56/57 58/57/58 68/73/68 67/71/67
f 58/57/58 59/60/59 69/75/69 68/73/68
f 59/60/59 60/114/60 70/77/70 69/75/69
f 60/114/60 51/51/52 61/58/62 70/77/70
f 61/58/62 62/59/61 72/61/71 71/62/72
f 62/59/61 63/128/63 73/130/73 72/61/71
f 63/63/63 64/65/64 74/66/74 73/64/73
f 64/65/64 65/67/65 75/68/75 74/66/74
f 65/67/65 66/69/66 76/70/76 75/68/75
f 66/69/66 67/71/67 77/72/77 76/70/76
f 67/71/67 68/73/68 78/74/78 77/72/77
f 68/73/68 69/75/69 79/76/79 78/74/78
f 69/75/69 70/77/70 80/78/80 79/76/79
f 70/77/70 61/58/62 71/62/72 80/78/80
f 71/62/72 72/61/71 82/79/81 81/80/82
f 72/61/71 73/130/73 83/129/83 82/79/81
f 73/64/73 74/66/74 84/82/84 83/81/83
f 74/66/74 75/68/75 85/83/85 84/82/84
f 75/68/75 76/70/76 86/84/86 85/83/85
f 76/70/76 77/72/77 87/85/87 86/84/86
f 77/72/77 78/74/78 88/86/88 87/85/87
f 78/74/78 79/76/79 89/87/89 88/86/88
f 79/76/79 80/78/80 90/88/90 89/87/89
f 80/78/80 71/62/72 81/80/82 90/88/90
f 81/80/82 82/79/81 92/89/91 91/90/92
f 82/79/81 83/129/83 93/131/93 92/89/91
f 83/81/83 84/82/84 94/92/94 93/91/93
f 84/82/84 85/83/85 95/93/95 94/92/94
f 85/83/85 86/84/86 96/94/96 95/93/95
f 86/84/86 87/85/87 97/116/97 96/94/96
f 87/85/87 88/86/88 98/95/98 97/116/97
f 88/86/88 89/87/89 99/96/99 98/95/98
f 89/87/89 90/88/90 100/97/100 99/96/99
f 90/88/90 81/80/82 91/90/92 100/97/100
f 91/90/92 92/89/91 102/98/101 101/99/102
f 92/89/91 93/131/93 103/132/103 102/98/101
f 93/91/93 94/92/94 104/117/104 103/100/103
f 94/92/94 95/93/95 105/118/105 104/117/104
f 95/93/95 96/94/96 106/119/106 105/118/105
f 96/94/96 97/116/97 107/120/107 106/119/106
f 97/116/97 98/95/98 108/112/108 107/120/107
f 98/95/98 99/96/99 109/113/109 108/112/108
f 99/96/99 100/97/100 110/115/110 109/113/109
f 100/97/100 91/90/92 101/99/102 110/115/110
f 101/103/102 102/104/101 111/101/111
f 102/104/101 103/105/103 111/101/111
f 103/105/103 104/106/104 111/101/111
f 104/106/104 105/107/105 111/101/111
f 105/107/105 106/108/106 111/101/111
f 106/108/106 107/109/107 111/101/111
f 107/109/107 108/110/108 111/101/111
f 108/110/108 109/111/109 111/101/111
f 109/111/109 110/102/110 111/101/111
f 110/102/110 101/103/102 111/101/111
